<mxfile host="app.diagrams.net" modified="2023-07-24T11:59:47.237Z" agent="Mozilla/5.0 (Windows NT 10.0; Win64; x64) AppleWebKit/537.36 (KHTML, like Gecko) Chrome/114.0.0.0 Safari/537.36" etag="d2JtqcoT8m8C0ilrAXUy" version="21.6.3" type="device">
  <diagram id="M2da-gXjwzqn2Iau3EuT" name="Page-1">
    <mxGraphModel dx="1838" dy="975" grid="1" gridSize="10" guides="1" tooltips="1" connect="1" arrows="1" fold="1" page="1" pageScale="1" pageWidth="827" pageHeight="1169" math="0" shadow="0">
      <root>
        <mxCell id="0" />
        <mxCell id="1" parent="0" />
        <mxCell id="KI43ASTjGofKOuIiyX8u-2" value="GitHub" style="dashed=0;outlineConnect=0;html=1;align=center;labelPosition=center;verticalLabelPosition=top;verticalAlign=bottom;shape=mxgraph.weblogos.github" vertex="1" parent="1">
          <mxGeometry x="310" y="547" width="75" height="75" as="geometry" />
        </mxCell>
        <mxCell id="KI43ASTjGofKOuIiyX8u-23" style="edgeStyle=orthogonalEdgeStyle;rounded=0;orthogonalLoop=1;jettySize=auto;html=1;entryX=1;entryY=0.25;entryDx=0;entryDy=0;entryPerimeter=0;" edge="1" parent="1" source="KI43ASTjGofKOuIiyX8u-3" target="KI43ASTjGofKOuIiyX8u-4">
          <mxGeometry relative="1" as="geometry" />
        </mxCell>
        <mxCell id="KI43ASTjGofKOuIiyX8u-3" value="Domain RegistrarÂ " style="shape=image;verticalLabelPosition=bottom;labelBackgroundColor=default;verticalAlign=top;aspect=fixed;imageAspect=0;image=data:image/png,iVBORw0KGgoAAAANSUhEUgAABLAAAAD2CAYAAADGb36tAAAABGdBTUEAALGPC/xhBQAAACBjSFJNAAB6JgAAgIQAAPoAAACA6AAAdTAAAOpgAAA6mAAAF3CculE8AAAABmJLR0QA/wD/AP+gvaeTAACAAElEQVR42uydd3xc1bHHf3PuamXLxjYGY3t3ZVvae1eyBRiw6dWhJkCAJHQSSkgnISEQQg2QkDxIIyGNFGpC6L2EKiCUAKKYIFvae1eyrd21jQ3YuEraPfP+kAjNRbJ168738+Hz8kDSmTMzp8zcc+YQBABAIpebhHK5gZSaSMwTmWgimCeCOQGibQDEGKghoLr/V0YAiANYA2AlgBUAlhHRKmZeCeBtAAvAvICUWlBinq9GjJhXTCRWi7Y9hFmlstmJ2jCmQOtJimgSA5OYeSIptQUzj6E+W47s/2fL/t9cDkADAAHLGGAA74GoQMyLmajAzIsB5JkoX20YrfPq6taKwgVBEARBEARBEARh6KFK67Bp29VrmXeAUtuDeXsGtgOwPT5IXLjNUgBvAngdRK+jXH59wooVc16ZObNX3HHzmDxnzsRyPL4DM+8AYEcAOwCYAqDKg+bLAGwAbwCYzcB/CXitYFl5sYwgCIIgCIIgCIIgbB7RT2Axq4m53I6k9f6KaH8G9gJQEzApewC8CeYWBp6KV1U1z6urWyTuuX5mtLRULdxyy12pXJ7FRHtSX7JqfABFtQE8TsxPoLe3Od/U9I5YTxAEQRAEQRAEQRAGRyQTWONaW0dWx+NHMnAkgP0AbBVCw8wB0AzmZs38dLGhYWlFe2pzcyyVTM4A0SwN7Ed9icgRIeuFJuA1Bh5RRP/sMs03ZQoSBEEQBEEQBEEQhI0TnQQWs5Gw7VlE9CUAR6GvnlFU0AS8BuABVurmQjqdrQTnnNLZOaynVDqQmA8D0ZEAtonY4JsD4HbFfOOCTKZDpiNBEARBEARBEARBWG8MHW4S7e2NIPomER2LiCU4NsCrILpLa33XwkxmbpQ6tnVb2xbxWOwzxPw5AJ9BtBKR60MDeAZE143p7r6ltampR6YmQRAEQRAEQRAEQfiA0CawJra3762UOhvAYQBUBdvwTQDXstY3hfaaIbNKOM4BBJwG4AgAwyrYngVm/u0ww7imI51eLlOUIAiCIAiCIAiCIIQtgdWX6DiUgB8C2EPM9xF6ADwK4MZCPn83Zs0qBV3gVHt7EkqdxMBXAdSLCT/CSia6FkS/LKbTC0QdgiAIgiAIgiAIQiUTmgRWwrY/S0RXgrlBzLZRFhBwndHbe838adMWBkoyZiPpOEcR8BUGDkBln54bCL0A/sJa/6jiC/kLgiAIgiAIgiAIFUvgE1gTs9mpCvgFiD4j5ho0PQBuNYArFlhWq5+CmLZdvaavTtn5koTcJFYS8MthwM8cy+oWdQiCIAiCIAiCIAiVRGATWMm5c7fiqqqLiflbAAwx1WbBIHqCmX9btKz7vWx4vONsU8X8TQbOALCVmGKzWQCiiwqmeaOoQhAEQRAEQRAEQagUgpfAYqak43ydgP9jYJSYaMj1+zIB/5e3rLtBxG41MymbrS8R/ZCAL6Kyi7K7ZccnSlp/ZXFjY6coQxAEQRAEQRAEQYg6gUpgTezomKy0/iuYDxDTuM6bAC4rWNbtQ/lHxzvONgbzWQR8F0C1qNlVVhNwWd40fw4iLeoQBEEQBEEQBEEQokpgElhJx/kSmH8HYAsxi6e8QMD5ect6arPsN3fuVhyLnUPAdwAMF7V6OYrpcSb6srxWKAiCIAiCIAiCIEQ29PVbgK3b2raoNoxrAXxBzOGnJ9DjGvjhQtN8ZTC/Nq61dWR1PP4tBs4DMFoU6dtAfg/Mp+UzmTtFG4IgCIIgCIIgCEIE417/SLS3N5JSdwGYKqYIBAzg772Gcc5b9fWLN/yTTMlc7otgvhLAeFFdMOzHwJVF07wARGVRhyAIgiAIgiAIghAVfEtgJbLZ44noLwBGiBkCxzJiviRfKPwes2aVPmE7296JgKsB7CGqCiRP9RrGcRtNQgqCIAiCIAiCIAhCSPA+gdX3yuBPAJwv6g84zG8o4NtdmcwzAJBob9+aiC4H0ekAlCgo0AO7k5U6pJBOZ0UbgiAIgiAIgiAIQgTiXO+Y0dJStWjMmD+D+RRRfWhgBv5JwMsALgIwVlQSGpYS82H5TOZFUYUgCIIgCIIgCIIQZjxLYI2fPXtEbMSIW8F8qKhdEDxjNZiPLWQyD4gqBEEQBEEQBEEQhLDiSQKrPpcb3a31owB2EZULgueUCDglb1n/EFUIgiAIgiAIgiAIYcT1OkbjZ88e0cN8PyR5JQh+EWPghlQ2e4KoQhAEQRAEQRAEQQgjrp7AShSLNbRq1UMA9hVVC4LvlJnopKJp3iKqEARBEARBEARBEMKEawms/uTVgwD2EzULQmDoZeALRcu6T1QhCIIgCIIgCIIghAV3EljMKmHbdxDRURHQ0VsAimB+m4hWMPAemNd+VIs0hoFRBIwCsCWAyQBqxL0CTQ8BBQYWMbCcgOVgXv7JEULDCRjVb9/x3GfbESHv+xoAnypY1n/EDQRBEARBEARBEIQw4EoCK2nbvwDw/ZDpIgfgVTC/wUSzobWtamrm52tr12zKH5s0f/6WulRKoVy2GJgGom0BNAFoBBAT1/OMPID/EtGbDLRSuTzXKJe75k+dughEvCl/MNXaOlbH41OIaDswTwcwHcDOALYIkV7eKpXLuy1ubOwUFxEEQRAEQRAEQRCCzpAnsJLZ7NdB9McQ9H0JiB4E85MAmguWlfei0fGzZ4+oqqmZCWB3ALtxX32wMeKKQ0IZwEvE/ByAF8D8Yr6hoeBJy83NsWQqNRPALAAHAdgbgBHwwT8nrtQeHen0cnEdQRAEQRAEQRAEIeAx7NCRyGYPJKKHENwTRksIuBXAnXnT/DeIyr5LxGwkHWdnMB8IooMB7IaAJz4CxnwQPUzAozHDaJ5XV7csCEKNd5xtqoAjmflY9CW1KKD6e6xgmp8OxFgQBEEQBEEQBEEQhPUwZEF1qr09yUq9BmBcwPrIAJ5momtqmO92LKs7yAZ5P/GhmT9HfYmPuLjpx72W2sF8lya6c6FpvhJ0cVOOYwL4CjOfGsDxARD9uGCaF4tjCYIgCIIgCIIgCIFNBQzJX2lujqVqa59k5r0D1DcN4G4GLi9a1mthNM6k+fO3LPX0HE/AlwDsWuG+ugREN0Pr6wuZzOth7ECqq2s4urtPZ+ZzANQGaaww8yHFTOYxmRIFQRAEQRAEQRCEIDIkCaykbf8UwHkB6tQ9JeCCRZY1JyqGmpjNTjWUOpWZTwOwVYX4JzPwCIiu2bK7+6HWpqaeKHSqqbU1vqyq6jQQXQpgm4CItTjW27vj/GnTFsq0KAiCIAiCIAiCIASNzU5gJWz7IAIeBqAC0J83mfl7xUzm8agarP8Uz0nM/G0A20W0mysB3Mjl8m+LjY3tUbVlfS43ulvriwB8G8G4KtpcMM0DQKRlahQEQRAEQRAEQRCCxGYlsMba9qjhwH8BTPK5H90ALi3k8z/HrFmlSjFe0nFmgfksAIciuEXCB0MRRL+qJvprJb2MN8G2pxnM14NoZ79lYeCMomX9XqZGQRAEQRAEQRAEIUhsVtIj6Th/BPPXfe7AK0R0SpdpvlmpRkzY9o5gvoiIjkQ4E1nzGbgyHotdO6+ubm1FGrG5OZasrT0XzBfD39NYK8ul0naLpk6dJ9OjIAiCIAiCIAiCEBQ2OdnRf/rnCfiYMGHmqye+9973X5k5s1dMCaQ6OrbncvlCAEeHw/toHjP/eOLy5TeJDfttmM3uykS3w98i748VTPNgELFYRBAEQRAEQRAEQQgCm5R8SnV1Dee1a/8LIO2T3KsJ+Fresv4uJvwQzCrpOFcD+GbAJV0K4PLhwB8dy+oWw32UCbY9zgBuAfAp31wJ+HLRsq4VawiCIAiCIAiCIAhBYJMSWMls9iIQXeaTzEuUUod2pdMvi/k+RHNzLJlKXQfgpABLuQpEv1rD/It3LOs9MdqG7ZlKpa5h4DSfJHirWqlMJdUiEwRBEARBEARBEILLoBNYqfb2JCvVDmCED8J26nL501F+mW5TaGptjS+Lx28G8PkAi/mANowzFtbXzxeLDRBmSjnOjxj4kU8S/LJgWWeLIQRBEARBEARBEAS/GXQCK2nbNwL4og+ytlXFYrPm1dUtErN9wPjZs0fERoy4B8wHBFTEN0H0nYJpNou1No2E45xNzD/3oekeUmrbfDptixUEQRAEQRAEQRAEP1GD+eFUe/su8OeKWgdpfYAkrz7K+NmzR1SNGPFwQJNXq0F0diGf31GSV5tH0TR/AaILfWg6zlr/QiwgCIIgCIIgCIIg+M2gTmAlbfsJeF9YOl8ulfZeNHXqPDHXB4yfPXtErKbmQQD7Bk445icM4KsLMpkOsdTQkbTtywGc77k5ifYsmubzYgFBEARBEARBEATBLwacwJrY3r63UuoZj+VbCa33KjQ0zBZTfUCiWKyhVaseADArYKItY+DsomleCyIWSw0xzJRwnJsIONHjSeLRvGUdLAYQBEEQBEEQBEEQ/GLAVwiVUpd4LJtm4CRJXn2UVFfXcFq58j4EL3nVDGC7omX9TZJXLkHE8VjsdACenoZi4KBELreXGEAQBEEQBEEQBEHwiwElsPqDV0+vDhJwftGy7hUTfUBTa2sca9feA6L9AyRWDzOfWzDNAwqWlRcrucu8urq1JaKjABQ9bVjrC0T7giAIgiAIgiAIgl8MKIGltL7IS6EY+FfeNK8U83xYKWwsi8f/zsBBAZKqjYHdipnMlSDSYiRvWGyab4HoJABlr9ok4JDaXG5n0b4gCIIgCIIgCILgBxtNYE2w7WkMHOhlfB6PxU6Va2gfgpmStv0HAEcHRSQC7qlWareiZb0mBvKegmk2g+inXrZZ1vpM0bwgCIIgCIIgCILgBxtNYBnAGRjka4WbAxGdOq+ubpGY5gOSjnM5iL4aEHF6ifm7ecs6qiOdXi7W8Y9CV9dlDLR4NjaBo6d0dk4QzQuCIAiCIAiCIAhes8EE1pTOzjEAvuShPH/Pm+bDYpYPSNr2WQDOC4g4RSaalc9kfiOWCQCzZpVI69MB9HrUYrynVPqaKF4QBEEQBEEQBEHwmg0msHpLpdMAjPBIlqVl4CwxyQekstnPA/h5IIRhfoOV2r1oms+JZYJD/yudnvkIEX2tqbU1LpoXBEEQBEEQBEEQvGRjVwg9O21BwHmLLGuJmKSPpG3vxkQ3YYCF9l22zT2lNWv2KKbTC8QywYOGDfsJAG9swzxxWTx+hGhdEARBEARBEARB8JL1JkdS2eyuADIeyfHfvGleJ+boY3xbWx2AewEM91sWIroyb5qfXzx9+iqxTDDJ19auIeB8D5v8omhdEARBEARBEARB8JL1FmdP2fbvGPiWF0IwcHDRsh4Vc/TVHestlZ4HMNVnUTQTnVk0zd+JVUIAMyUd5z8AdvGgtV7WOlFsaFgqio84zc2xCRMmpFQ8nlJaT9bMCaXUOM28JRGNBTAKzMMJGPZRd2QNpZb3/z+rGVgJoqWk9RJS6i3NvBhES41SqbOrsbEoihYEQRAEQRAEYWPE1vUvm1pb48uAYz2S4UlJXn0QLPaWy7fD/+RVN4AvFU3zNjFKSCBi5HLnQ+vHPWitCoZxHABJbkaIVHt7UhvGzgTsBOapDEwlwAIQh9ZgAEQEZu778sH8v9/lT/rjR/77/37+Y7+vDQNJ214FwAbgALAJaGWlXi7U19sgYrGMIAiCIAiCIAj/iys+TsK2jyDgHo8C708VTLNZTAEkbftXAL7ns0O8x0RHFUzzSbFIKH3oeQC7e9DUiwXL2k00HlKYKdXRsS3K5U+BaD8m2hXMEwMm5TIALwN4Gcwv9PT2PrWkqWmlGE8IA6n29iSU+iqA7ZloZETnkTUA1vb/fxrMy5noXQUsY+ZlpNRiZl4EoGvC8uWLX5k5s1c8QxAEAJhg29MM4HQAJoiGtmQK83JmfjFeVfWXeXV1y0Tb7pFwnFoCvkrM2w71WkfMKzXweskw/vRWff1i0bbwoXzFOpzRtv9OwIkebH6eLWQye4sZgKRtfxHAjT6L8RYDhxQt6zWxSEiDplzuM6z1g160pQ1jysL6+vmi9XAwrrV1ZDwePwTAEQAOArBNyLrQA+A5Ah5h5kcKljVbTmgJgVzPHedTxHw3A6NEGx8sGQTM10AWzFkimstEs8urVs2WGpuCUGFzZDZ7Coj+DKDK5aYWKOBTXZaVE60PPYls9kAiuhPAFi43tVQTHbLQNF8RrQvAuhJYzc2xZCr1FoAtXW9cqUPz6fRDlW6EiY4zQzH/Gz4WbWdgkQb2X2RZc2RYhJi+WlivAZju+vgl+k7eNK8WpQd4c1Es1qiVK49kpU4A8wEAqiPUvQKAW8D890Im87pYWwgCqdbWsRyPO17soSJCGUAWwMsMPK2U+nc+nbZFLYIQTfpPXs3GesrYuMALBcvaQzQ/tCTnzt0KsZgDYIxHTTqFfH4qZs0qifaFTySwUra9HwNeXOnLFUwzAyJdyQYY7zjbxJhbANT6GQhyubx/sbGxXYZEBAIox/kqM1/jQVOPFSzrINF48Eg4zp4EnA7mz8P9L2NBWMjmMPAPJrqpaJpd4gGCb2PPtr9JwO9FE5tFEcAjAB6qVuqxjnR6uahEEKJB0rZ/AeD7nu4RlMpIYjz8a51i3rcrk3lGtC+oj/8LBj7rzWxCf6z05BWYVUzrm+Fv8moBEe0nyavo0Ltq1T/QVz/Ibfatz+VGi8aDwfjZs0ekHOerSdt+nZifBfMpqIDkVf+6NQ3A5cTckbTtW5O2LfXZBF/of/hA2MzYCMCpAG7v1npJ0nEeS9j2lyfNny+n2gQh/Hg+RzIwSdQ+1GE8ZTy3I1GtaF4A1pHAAnC4B+2uoe7u6yp+h+Y4F4Jofx9FWFAulfbNm6YjQyE6LJ4+fRWIbvCgqXi31geLxv0l1do6NmHbP4rV1MzvP3k3vYLVEQNwDIAXkrb9n4TjHAtmQ7xE8GxT735Nl0qjCswHEPDXck/PoqRt35ew7SPQ3BwT1QhCGCdJ8nxNZq1lHzDUZvRhb8U++I4QTD6SwKq17TQA04N27883Nb1T0UGnbe9HwMU+LiALSakDFk2dOk+GQfRgZk8eBCBAElg+kZw7d6uU41zJ8fh8Ai4BsJVo5SPsSsy3JBxndsK2jxB1CELoiQM4nIB7kqnU/GQ2+5OkbadELYIgCIJQOXwkgVUG9vMkuAb+UclKH+842/TrwK9M8jJo/Rm5Dx5dipb1KgFzPBjL+4q2vSVRLNakbPtcxGIOM58DYKRoZf0Q0ETAPUnb/k/ScWaJRgQhGlMhiC4A0JG07dtqc7mdRSWCIAiCEH3Uxzb6XgSj72zZ0/OvitU4s6pivgl9NR78YLkmOkBe7aoEV+NbPGgmnXAcuZPujUEpZdsn0qpVNgP/B+9efokKu4L5yZRt351qb0+KOgQhElQBOFpr/WLStu9NdXRsLyoRBEEQhOjy8RpY+7kegwF3tTY19VSqwpOOcyYDfr3ctoaVOmyhab4irl8BGMatnkwizHIKy2Um2XZT0nGaGfg7/Et+RwIGjoRScxK2/U0wK9GIIEQCAvBZLpdfS9r2LalcTorpC4IgCEIE+d/mfVI2Ww8vXsMjerCSg1AAP/Wp+TIRnVhMp58Vt68MCul0FkSuvy6p5Rqha8xoaalK2fYlZeA1iJ6HDAZGEfD7pOM8MzGbnSoaEYRI7WuPZa3fTDnOFVu3tW0hKhEEQRCEaC30AIAy0Z4etNfd2939eCUquqm1NV7uOz0xzJeAjei7edO8W1y+0iJ1fsDtJgjYUxQ99CTb26cvGj36JQZ+BHnZzC32VEQtScc5WVQhCJEizsw/qI7F2hOOc5yoQxAEQRCiwQfXJ4hmuB5LA81LmppWVqKil1dX/xjADn60TURXFk3zd+LuFYg3Jx4bxrW2SiHxISTlOF+FUi/5NWdUGDVgvj5p2zcmisUaUYcgRAjmicT8z2Q2+6DUaxQEQRCE8KM+WON5R/djaarI01eJXG4vZv6+T83fmk+nzxNXr0zGdHc/B2C12/NIVXX1dNH25jNp/vwtU7Z9NzNfg74n4wXv+CKtXPlCMpfLiCoEIWIQfYaY30hks8eLMgRBEAQhvPQlsJiV8uBLP5XL/640BU/p7BxGWv8NgOF548wv07Bhp4JIi6tXJv0PJvzHg4lkJ9H25lHrONuWe3paGDhStOFbkLs9tH4+adu7izIEIXKMIaKbk7Z97fjZs0eIOgRBEAQhfCgASHZ0mAyMcrmtlfli8dVKU3BvqXQxAD++6BeJ+ah8be0acfPKhoFnPGhDElibQcK2D9fMzwOoF234zlYAHk/Y9uGiCkGIJKfGampaEm1tDaIKQRAEQQgXfSewtHb9+g8Bz2PWrFIlKTeZze4A4Bwfml5LzJ/LNzQUxMUFInL/5CPzDqLpTZwnbPt7BNwDQF7LCg41BNyVsu3TRRWCEEkayTBeTOVynxFVCIIgCEJ4eP8KoetfoZjopYrSbHNzjIj+CiDmddMEfCWfybwo7i0AwBrmFgDscjMWmEm0PZhJkSlh2z8D8Ct8+EENISjEGPhLwnHOEFUIQiQZzVrfn3Sc74sqBEEQBCEc9AVNRJbbDZHWr1eSYhPJ5PcYmOF5w0S/yVvW38W1hfd5x7LeA5BzuZkRqWw2IdoeIMwq4Th/JuCHooxgQ8y/TTrOyaIJQYjoPpj5F0nb/qV8hBEEQRCEMCzcfVgeNPRapSg1adspIrrYh6ZfHNPd/QNxa2EduD/+lLJEzQOAWSVt+1oC5HpaOCAw/zWVzX5OVCEIkeWshOPchObmmKhCEARBEILL+wu124HnsgWW1VlBev0FgJEet/mONoxj+1+dE4SP8zqAo90N88kC8JSoegMwq6Tj/BVEcqInZGslE/0zkc0eVsxkHhN1CEL0IODEZCpVVWhuPrHSarYKgiAIwlBS29aWIKWGbehnFljWfBCVTduu7mFOAgBrvbarsbH48fhpQlvbpLhhqG6tWU2aP39LAFu73Id2EHElGCvpOLMAHOt1WAzmLy2sr58vw0VY58acaK4HzcgJrI3ND7nc7wGcKpoIJXEiujXlOKaoQhAiyzHJVOrvchJLEARBEDYdbRhOmSi3oX+SHR37AcBaoi+9/++0YXSlcrmPxJQp2/62EYt1lolyMcPoULpcrvWgD3YlGGpGS0sVM1/tdbtE9PNCJvOgDBVhA07iuN0Ea10ril4/yWz2IjB/XTQRarZk5rvHtbaOFFUIQmQ5NpVKXSM1sQRBEARhk2PPxQDe7f9nbf+/LX/o370LrVf1x5DGh35T6XL52x8EmKyY6Dsf/tOKyuWJrge2gFMJdlo0evQZBDR53Oyro7u7L5JRImwIPXx4Dm6/REg0UTS9bhK2fRqILhVNRIJt4/H4tRLcCkJ0YeC0ZC53mWhCEARBEAZPwTTrCpY1tmBZYwm4ov9fz37/3/X/85+P/VpvX0hJp4y17VEAkHCcwwDU98exJQBQmtn1oFMxR/4E1pTOzgkEXOJxs6s180lS90rYGMVEYjWAgsvNyCuE62Bie/veBPwJgCQ8osPRiVzu+6IGQYgwzBemHOeroghBEARB8IT/ApgLYIsa5lPRFzydCQAgegjASgBQXpyaKDN3RV3bvaXSFQyM8nRvBZyzMJOZK74uDJAFLv99OYH1MRKOU6uUuh1AlWgjWhDzT2odZ1vRhCBEF2a+OpHL7SWaEARBEASX11xAE9GvAYCJzkh1dGwPYFb/vvsX7/9cjIkmELt7s8gwjIWRDlJte0cAJ3m8q3qoaFl/FFcXBoHb43DkWNse9Y5lvSeqBkzbrl7LfDcD4yPQnTKA+QzYIGoHczuIitB6pWEYy3u1XhVnXgsAJeY4G8YIIhpOWk8goonMPAF9Rf4bAWQAVEdAJ9XMfD2am3eTF8sEIbLESes7krY9s2BZeVGHIAiCILhHzDBu6i2VfgLA5HL5FgBEwCt5y3oqafdd6osRs+vBVXd396KI6/qnAJSH7b0bK5VOr5SXHYWhgYCFbjtMDdE27wCSwAKwhugKMM8IqfhlBl5TzE/BMJrX9vb+e2lj44oh+cvMRtK2t2Ol9gLz7gQcAGCbMCqJgRnJZPKHBeAn4vGCEFnGA7gVzc37SrJaEARBENxjXl3d2oRt/6G/NNNUANDMv/zwz8Tg/rW3FUuamlZGVclJx5kF5kM8DprOnj9t2kJx8U0n1dGxPZdKZxHRztz3MsJTVbHYz+fV1UU22cpA0e02NPMo8S4glct9hrX+TghFf5GBG6lUurU4derbrrRAVC4Ar6Pvn9+BWSUdZ1cGPkvA8QAmh0pjRBelOjruy9fXvyGeL/jIjUY8/l0/Gi6VSlugt3c4x2IjFdEY1noKAJMAC8wWiKb17zfDzB6pVOqiPPAjcTVBEARBcDGeBP5gAOcCGA5gfrFQuP3D/931BBYBSyOrXWaC4/zM41YfK5rmdeLam8a41taR8Xj8x1wufxtExodOJO3UWyp9MZXL7Z9Pp/8bxb4T0VJ2+bqwAraodB8b7zjbsNbXITxF25cz8CdofX2xoaHNB8fUBeAFAC+A+YKEbe9PRKcD+DwAIwT6i3O5/Bv039EXBF+2I0D3gsmT3/Wp+Q22u3Vb2xbDYrG9NPO+BOwHYGd4e2p9qHR8wcT29scXNjT8WzxOEARBENxhkWUtSTnOmaz1TCZ68OOnn2Ng3gLkXpzF/dXio0jKto9iol09bHJVqVz+mlwd3DQStn0EAVcDqF3Pj4yD1reguXl6JK8JaL3KzbEOAMxc8QmsGPPVCMeVuHcY+E08FvvtvLq6ZYGQiEgXgccAPDYpm60vK3UO+l4hCXrNrP0Stv3ZomXdJzOtIHyU/uvHD/f/0/e4BfMJ3Fc7NEwPIRhKqWtTXV3b52tr14hlBUEQBMEd8qb5FwB/Wdd/U1DK7Ss/0UxgNTfHmOhyT2M75gsWNzZ2iksPjqRtp1K2fTcB92D9ySsAAAPTksnkSVHUgyZyfSxyhZ/ASjjOkQCOCbiYaxm4pLtcnlK0rMsCk7z6GAsymY6CaX6jXCo1Ari1z72CCxFdOaOlRV6bFISNUDTNrrxlXVGwrO0YmAHmW9D3UEQYMNHdfYlYURAEQRAGHB++CaLHifnJdf6AYdggepyApzey134YRI/H4H7NmkgmsFKp1Cnc96KWV7yet6zfyRAYzGhhI2XbZzDw40ElVoguQHPz36N2CouUWgWt3W3D/Zp6gWWsbY8i4A8BF/NJUurrhXTaDoteF02dOg/AcQnHuZqY/4L+go4BnG8aFo4Z8zUAMk8LwgApWtarAI5P5nI/gtY/RN+prEAngpn5rGQ2+89CJvO6WFAQBEEQNkzBsu4AcMd6/3s6/QSAJzb2d/KmeQLQV4Mg7vJCH7kE1oyWliomusDT/RLRt0BUliEwMCY6zoyU47zIRFdh8KeCzGRt7QlR0wmVy66PRVIqXqk+V0N0IZgnBlS85SA6uWCaB+RDlLz6SKBrms9VxWI7EdGVCOhpDWK+ePzs2SNkBhaEQW5u0+lswbJOKwM7MPBMwMWNMdFvxGqCIAiC4D0KLhfJJaKeqClt0ZgxJ4B5iodNXl80zefFXTdOolisSdj2/ynmFxmYscl/iPkiNDfHoqQb7cVY1FpVot/V2naamYP66mCbZt69YJo3hr1+3ry6urV50zyXgAMALA6giOOMESNOlZlYEDZxf2VZc4qmuR+ITgawJKhyErBP0ra/IBYTBEEQBG9RcPslGLefPfMaZgXmcz1scVmJ6Ifiqhsn4ThH0qpV7dT37ObmJmbNZCp1fJT0Qx6MRSaqyASWBn6FABYaZ+AfpdWrZy7MZOZGSd95y3qKiXYG8GrgFlXms8BsQBCETVysiAumeWNVLLY9NlIPw1cxgSubWlvjYjBBEARB8HCvDZcTWKRUpBJYKds+Ch7WYCGiixeb5lviqusn4Ti1Kdu+h5jvBpAawj99YaQCUS+SyRWYwEpls7sC+GwA7X1R0bJOWjx9+qoo6r1oml3d5fJ+6Hu1MDhqB+oSuZyczBCEzWReXd2iQj5/ABH9HAF8xIGBumXx+JfFUoIgCILgHa4nsHTUTmARnedha9nxy5b9Sdx0vQG6kbTt7xLzHAaOcKGFTJQCUYrFtOsmqcQrhESXBS+uwvcLmcxPoq76pY2NK8b09BwG4PaAzU1nywQtCEPArFmlvGn+AMCxALoDKOF5pm1Xi6EEQRAEwRsUABI1DIyU4xyyWXWVBhsXM5/3ysyZvaL5T1Kby81MOs5LAH4NYKSLNjgrKjojb5LJFTWfJHK5vRg4KEAiaTB/s2BZv6oUG7Q2NfVMWL78RAD3BWasATP7T+YJgjAEFCzrdtX3oWp10LYja4DTxEKCIAiC4A0KLn/RIpdfOfQ0MmT28vTVc/lM5i5x0Y+ydVvbFgnH+Y3W+j8AdvKgyV0SudxeUdBdmdn1saiC+YXcvfmNOWj16c4pZDIVd2rzlZkze4cDxwB4MjjOQZ+WGVsQho4uy3qEgM8AWBEw0c4CsxILCYIgCIL7xACsATDcxU388CgoKpXN7srAPh41xwDkCsrHbeA4RzHzb8Gc8rThcvksAM+GXoFK1UBrt9tYUyn+mGhvbwTzZwIk0h8r6eTVx3Esq3vS/PlfKPf2vgDmBr/lYeaJUdd5cu7crRCLZUBkUV9/a8Bcw8AoUmoLZo4xsBxEq8G8WgHLNNEqMHcxc3Zsb2+utampB4IwQPKW9XTScY4A878QnA+kZsJxDisG6BToUDCjpaVq0ZZb1qFczoDIBPMWTDSCiMaAeQSAOJiXgWgFAyuoL7HYZQBzxi1fnpUbBAHZO7e2juV4PAOiDDFPZGAUiEYwcw0BYwCsIWCFBlYq4F1mXs6AY2g9p6uxsSgaDAZjbXtUNZFFWmcA1JJSW4B5BJhHgGgMgB4AKxh4j4DlRLQSgF3q7W1b1Ng4P+yvUAvCh3k/geXmLj4SCSwmOsPD5u4qWNZ/xD37EwW53CTS+mpm9qVQNhEdkXIcM2+aTqgVWS4PB5HLw50rJoFFRN9DQK5MMvCvYj7/nUqfKxZMnvxuKpc7nJlfQt/G3E8HeSJKuh3f1lYXU2pfItqbgSYAFoCx/QP/gwrb/XPM+zeWqf+/9/sp6P1/T4Rl8Xg5advzGbABvK6UemZtb++/lzY2roAgrIeCaTYnstmvE9G1gVkPgO8izAksZpXq6GgC837MvA+A6YuAOmgd+9++gegj4/nD4/3DC2EZwKLRo3uTtu2AeTYTPWaUy/+SZIj7bN3WtsWwWGwvzbwvMe8JokYGtv7EPM38EZtxvw35Q3bWhoGkbS8HMJeZXybg0dKaNc1RfRgmSKS6uoZj7dpdAezHwN4MTCNgApj/N+b+Nw4/tq+nD/bjAAAjFkPScVaRbbdp4DUCHqOensfzTU3viKaFsBIDsNblNmpCv3F3nG3AfLRHzWlFdIm4JoDm5lgylfo2tL4MLta5GgAKzN8FcEao9enNaciKSGBN6ewc01sqfTEgdp23lvlYzJpVkkkDyKfTdtK2vwrgNp9EWAPg/IJl3RZ6H+/tPRJEnwKwL4BJ7wc6Q4gBoJ6AegAHs9bnVhtGOWHbrxHwNDM/UrSsJ0FUFs8WPkwxk7kuYdsZAoJyjXu/VC5n5dNpOzR729mzR1TV1BypmT9PjrMPA1sN4Z+vAjAVRFMJOE4bBidt+w0ADxLRdaH/IBikZIfjmJr5xP7rtTsxc4zWkdjYREYD2I2IdgPw7VhNTU/Stp8DcD9KpRsLU6e+LRYYGmrb2hI6FjuemT/Lfcmr/z0OMQSWHMHADOqr43w69308amHgISh1fTGdXiAWEMKEFyewaiKgpK98eCJxmTu6TPPNip/Ic7mZWus/A9gxCPIwcMqk+fMvWjB58ruhVWrfMWO326iIBFZPqXQCuXn1euBopfXJ72Qy78ly9gEFy7o96TjXgPlrHjbbAeCvZeCviyxrSRj1Ztp29VrmQ1mpE3tLpUNB5MfragYBMwHMJKLvJxxnETnOrVQu35xvaHhJvFt4n6JpXpB0nF0BzAqAOMRanwLggkArrbk5lkwmD2aiEwg4goERRJ4cJCYA0wFMZ+YfJm37ETD/oWBZD4FoULUNam07zcB5DOyKof9IvgREj1F396+DfEIl0d6+NQzjOGI+kZl38/AoeLx/vM1CLPazhG3fwVpfs7Ch4d8yIw2erdvatqhW6vNQ6kTNPAvMhke2NADsSsCu0PripG0/zMCfi6b5UJg/GM1oaalaNGbM8WA+DEAKwDj01fseSrpBVCDmdiL6U5hi9tq2toQ2jG8xsBcB22Aor+ET9ULrJSB6WQG/77KsnMu5Gax0d8misaGeXZqbY2D+ulfBaBm4tJIn87G2PWoY0Y+11t/qn2CDwgjd23sSgKtDq1yiLd1vglZWgp8ScHowTEq/6LKsZ2Qb+El6urvPjsfjhwCY7GIzaxi4i4iuLaTTzWGtMZFyHJOB769hPg599W2CNNYmgPlMVurMpG3bzPzXYYZxTUc6vVy8vMIh0rqj41RVLs9G30kRv/kSmC8OYgA4fvbsEVXDh5/OfVffJ/t8910B+DSIPp3M5drZts8pWtb9A5yrDmHmWxkY5ZJs9WDelaurT0o4zj5F0+wKVABq22lNdDaYTwHzMJ/FqSbgRFLqxGQ2+zIR/SBvWU/JxLRxpnR2Tugplb6rgG8wMMrnNdcAcBgBhyUdx4Ftn18wzTvCtp9JtbaOXRSPPwZm9x/4Yp7KwAHM/LVUNntyPpO5Oej6SeZy+2ut7wQwmtzRCUDUAGAvDXxlouPst9A0X3FvESFy+/jn1mGeZJKp1JHoy+J6EYzeusiy5lTqhJ7KZj83HJhDzN9BsJJX/WOTvxpyFW/tgQ9H/jh5wrZ3RDBOBr45jPli2QqumyVNTSuJyJWPDwS8wsC3qmKxRNGyTiqY5pNhTF7V5nIzk7Z9GzO393+oGRNwkS0iuqJH6wUpx7li8pw5E8XTK5uF9fXzQXRmULYxKcfZO1DrVXv71inbvjRWUzOfia6Cuwn9TdlYNRBwX9JxHkvlcttt6Ecn2PY4Zr7RxeTVh+WaQsAfAxOLtLdPT2az/9TA+3P1sEDZkWhnBpqTtn3/JNtukplp3UzKZuuTjvPH3lKpk4BzPfHlwWECuC3pOC9MbG/fO0y65Xj81/DmdfoPE2OivyXa2xsDHbfkcpOg9d3w7kPPSKX1FW42oKD1Upc7MWxca+tIhJdveTX2ylr/uBIn9EQuNylp2/cx0Z0AkgEWdduE4+wRWkUTbeV2E6qnpxLqIRwTjH0/f8+xrG7ZEq6fvGn+C8AdQ/Tn3mai30LrHfKWNbNoWX+YV1e3LIx6Sdr2bsls9nGt9csAjsbQH7F31/eBUcz8g1JVVWfCtv+cam9PirdXLgXTvIGBfwVEnM8HQYgZLS1VSdv+LinlMHAxhra+lRsL2gGs9asp2/4hmNd5QEAxn4K+K0FeyfTp5Ny5vuptgm2PS9n236DUqyA6DgH8uPsxDisDryWy2R+AWUEAAIxrbR2ZcpwrykRzA5mA/CS7KqWeTtn21VM6O4MuK2a0tFQBONan5ocpwwj0x2Sl9TkAtvA45nQ1XlYgWuq64gxjHELIBNueBmA/j5p7YGEmM7eiZvTm5ljSts8irVsBHB4GkUnr8J7CYnb7BBaPZI58Aov6An6fhaAHi5nM47It3DgG87kANjXRpxl4BMCxw4Fk0TTPLDQ0zA6rLqZ0dk5IOs51AJ4H0f4RMG81AV9hpdpStv1D07arxeMrdJwTnYO+B/D8XWaBI9eXgPGKZC63/+LRo18H8GsE42rlQIkx8LOkbT+wrsQREU31Ou7jWGyST/s1I2Hb3zKAdgZOQ7g+MlQR0RXJXO4ROSULJBzn2Hg83sbMP8BQ1hzyYKfJwBm9pdJL/fFwYFm45ZYT4V2t6nUMV/7cpPnztwyibppaW+MMHO/HPOBmElsBcD3grCIKZQIrRnSyV21prX9eSRN6bS63czKVegnAL+HvC4ODTRwcM6Wzc0wYdU4uf7kkYEVrU1NPpDcitr0TgLTPYpR039cUYQAsyGQ6iOg3g/TlTgZ+xErVFS3rkIJl3Rbm0279pzHOKpVK7eg7xUARM/NIBn62BvhvMps9VLy+8ugyzTcJuD4AoqRqOzpm+tHwlM7OMSnHuRlaP87AtNAak+gziMVeSTmO+fFtudeiGEp5fuIp0d7emHSclwj4HYAtQ2tH5gNKVVWvpTo6tq/EOam2rS2RdJzHiPkWBPt2ycbYzgBeTjnOIYGdMnp6VvksQnWpuzuQ+nmvqmo3+HMCd95gH+gYDIo8OIHFSk0K3XBlNpj5RI9a+0+lvOAx1rZHJbLZ32qtX0BAXhgcJMNL5fIXQ7opdHUcMrA06v6rgM/6bkbghoo7rbmZ9K5adRmA+Rv5sbUM3AylDsibplm0rMui8LT0xGx26qLRo18G8MsA1tsYaiwQPZC07VvD+qFB2Iy5sVy+GMBqv+XQzAd53WbStnfvLZdfY+bjI2LOyczcXGvb6Ury4WQ2ewop1QLva/m4xXgul5trc7mdK8mOKcf5tDaM18F8QES6VMPM9yRs+4ggCleYOvVtAHl/Qyz6dBB1o5U60KdY5WlX4zHNvMgDq04O20itdZwD4FHGnJgr4vRVKpv9/HBgDhF9G8G/x79euO8EQ9iEJjC7nUheFHUfZuAgv0WgvkK8wiBYPH36KjKMz2LdSaxXGTjDiMcTRcs6sZBOP+HmVyNP51zbPl0RtaDv+fpK4pjeUun1UNcsFAZNV2NjEUQ3BWC9PcDDtlTSts8H8AyYp0Rt26iB5vFtbXVR991xra0jk7Z9E4iuAzAiYt0by1o/nspmd426HWe0tFSlHOdKZn4QXtZr84ZqAm5POc5RgZSOyO+yGgcHsu6bT0nU/vIbrqFI6wUedCJ0J7DKwJc8aiqXt6x7ojyhT+zomJy07fuZ6A6E+xjt++wU9BcnPs42nZ3bABju8iS5IMp+3H+/fRefF+gnukzzTQlVB0++vv4N1nommL/OwBUgOpuU2r5gWTOKlvX7BZMnvxuVvtbncqOTtn0rA38BUFOhJp9MzE8ns9kLwWzICKgMDOar+7advrJ7olh0fdwlisWapOPcC+By+HC9ziNqY4ZxZ5Tr2yVtOxWPx18AcFJU+8jAKCa6Y4Jtj4tqH+tzudGLRo9+lJnPQfSu6b9PFTPfGMQYiJn9jqW3qe3omBEknfSfRPfj9GNvtVKPutlAzBg2bEG5x92yNYo5VCewxtr2KAKO9Cgg/WNUvvZ/gubmWLK29kyUy5ciYl+UyDBOQN/LPqGgmnmS207GRPMRYco9PfvD75ODWl8lIeqmU2xoWArgmij3sda2091aPwzAEosjBqIfJx1nj57W1mOWNDWtFJVEmwWW1ZrMZp/0+ZGCarVq1S4AnnKrgUR7+9a0atUDAHatALPuuAb4WRQ7NjGbnYq+FzQnVYAdUwbRzcxcilp2Z/KcORP7191KOO08EkrdwcBLgZJqxIjHsGrVavj40a6s9acBvBwUlZTK5Vk+xS3PdaTTy91sQPV/dV7hamAL1IdpZA7re2XMiwGwhrq7r4vkKtXevksylXoZzL9A9I5DA8wn+P3S0KAmVWYvxmCkT2CBaC+/Y7OCZT0sIaqwPmpzuZ018DwkefVxPl0djz81pbNzgqgi+pBSv/dbBs3s2mnd8W1tdaTUc6iM5NX7fBfAnlHqUNK2d1dE/0ZlJK/e3zsfQMD+kbJjLpcpV1U9hwq6qk9AE4BA1QMuJhKrCXjUZ718OljDzafrg8wPud2GAgB2P/DMoLk5TMebvbo+eEu+qemdKE1qY217VMq2r2alXgCwQ4Tn73TScUKzeVTMrj8/TRG/Qgjm3X2W4I7IntYUNptULvcZrXUzgG1EG+sYvsCMUqn0fKKtrUG0EW1ihvEwXP4wu9H1UKldXRrnlmEYzwPIVJhZCSH7GL4harPZfQA8Dn9eB/Obqqh0JNHe3gitn2WgrgLtGLi4nonu8VmEnRPt7VsHSCW+JLA00YOux7X9gafbV3+qk5MmhWLhmdLZOYEAT05aKKX+EKWZLGnbXxgOzGXgjPd9K9IBEfMJIQre3E9gGUZkrxBO6ewcBv8TsndIaCqsM6i17RNZ63sRxdOuQzsP1pFhPJew7Z1EG9FlXl3dWgD+nlZlHvK6I6n29iQzP0qAnCQM83zd0bG9JroXlVufMCoxT4qUegTRK9YeXnp7HwBQ8lECQxEdFARVTOzomAw/PnQQzVtkWXPcbub9E1g5D4L9aWHw/VK5/Fl4kXxhfrkrnW6JwnwxsaNjctJxHgBwO4BEpcyTRHRMiIoDuz3+uHflyo7Iroml0o4A4j6K0FUwzf/I7kT4OAnbPoKB6xHdIs5DzVYE/CtsD3EIg1yQiO7yO08x1rZHDdkfa20dq5V6JIIvDVYU49va6rhcfhjAGNFGeEm1to7lyqldFhoKU6e+DeBZn9eeQFwjpHLZl9NX1PcCp+uo/kB8rgcdCkUCSzN78zxo31O54aa5OZZwnLNVudwK5kMrcS+S6OjYPQx2gvs1cRYsnj59VVQNTUTb+do+cB+IGILwIZKOM4uAWyDJq8EyjpR6NJHLSfARUXpKpYcA9Po5bdcM0dX9RLFYw/H4g/11Z4SQMsG2x8UM41+ooA+9USTV1TWc4/H7ZDwGdL/u/2uEB4NZBUAPviSwoNRDnjTTHxzN9aCt7YPu9PW53GgCPuVBU93U03NrqCfwbHbXZCrVQsw/RwVfW1Hl8hFBl3FSKtUAwNUnqNmbOcQ3tM8bFd1X6FUQ/kdtLrczmO8FMEy0sWkqJK0fG+84UjMsgixtbFxBwBt+yjBUV/dp5co/ANhNrBpimJUCbkLl1S6LninXrLkKEXtQIEqUyuV7fRZhXCqbnen3fOPTS7xrEI83exJ/A0CPYXgRfO4cdKfvKZcPhTfXhO4La/H2+lxudMq2f8dEz6OCXtxY7xxB9Nmgy1gmcn0ipYgnsIh5O59FeF62JcL7pNrbk1rrBwBsIdrYLDIx5nubWlvjoopI8oK/Cwdt9snnZDZ7CohOFlOGfM52nHMIOFg0EW4SjnMsiL4qmggui6ZOnQfgdT9l0Ep92mc/nQ4/arMRPZmvrV3jRVMKAN6qr18MwO2ESl1y7txAv7bBRN5cH2S+IYyTQtK2j+7Weg4D30IFFGkfaAAU9FoqxOx+AouoLeJ29vPlsgVF0+ySoSYAwIyWlipW6lbIa4NDxW7vVlX9QtQQQZhf8FmCzbqiOsm2m0D0ezFkuEk4zh4M/EQ0EW5qbTutmP8smgjB1A/c42vcBfhbB8un64PM/JBXbX04CeH2CQqiqqrAnsJKdXUNB3CIB4NqUaFQeCRME8GEuXOnJLPZBwHcBrm7/8lBpFSgrxGyB6cfy+VyZE9gmbZdDX9ffXpBRpnwPotGj/4Z5PrCEG9O6NtJ2z5GNBE5u77od8y7OXvSct/DOPJSXYiZ0tk5hpj/CalTGGpmtLRUlYFbGBgl2gjB3K/1PT6LsPME2/btdUoiOtCPdnVf7UlvYu8P/e/ZrgfSWgc2gUVr1+4DYKQHCr8Ts2aVQjEDNDfHEtnsOUYs1gqiz4Rs/nqVgP0ArHbdr4HAXiOc0dJSBfevevLwWOwNRJS1RLXw8cRh1OuLCQMn4ThHAjhLNOEKf020tTWIGqJDl2nOA9Dj275yM05gcXf3+RiiGlqCf/T09l4Geaku9CwaPfrbBMwUTYSDQkPDbAI6fRRBxYCD/Gh4SmfnMAB7+RCrtPZf3/RGwR9q+BXXF3OivYLq7OzdcbvbwzD4U+3tuySTyVeI6EqE6wvgSgBnFUxzl7xlPQ2if3nQ5m6p1taxAV10Z8D9Is92Rzq9PKoLIfu8+SSgQ7YjwnjH2YaYr+1zCcEFtlCG8Q8wG6KKiEBUBrDAx7Vjk675pnI5C8zniAHDTbK9fToRfUM0EW6mdHZOIOBHoonQ7d19LeaufbpG2Kv1ngCGe92uInrQ0/b+9z8Mo8UDZ9qz/0RI8Byd6AAP+r8ob5rPBn7Rte1jWKlnQRT4lyM/xn1MNK1gWb/u37iCtL7Tk3FUVbVfIPfvfafQXI4R6BVEGGL29dosE+VkKyLEmH8JYEvRhKtr9IyUbX9LNBEp/PwKP2JTHgjQWl8Nl18OFtyeTJjIMK6GXB0MPb2l0pVydTCEe3f/62Ad7McHMdbal/pX8LD+VV/g3U9+/vw5ANyuHD9i4ZgxgbtG2P+M9nQPnPmu9xMrQWVKZ+cEAH8DUIXwkGeiowqWdcTHi12vJnoAQLcHSYb9g6gYDezrQdAX6QQWmH09XRc3DDmBVeEkHedTAE4UTXix66Qfp9rbk6KIyMzffiawsKqmZlDrR9K2vyCv1YWflOOcyMx7iybCTSKX2wvASaKJ8NF/YGSpjyJsnXQcz3MeCvCj/tWy8cuXP+9xP/vpq8vkeh0sYt4vaE5uaL0/vLiWQXRH0Ad8qbf3WHhQC2yIKIPoN93l8rSiad6zrh94x7LeA/CYB7YNXgKruTlGHhR7JuYWRBkiPxNYpXlTpiyWrUjlYtp2NZj/CLk66AkMjGKlrhJNRASl3vKz+Z6enjEDdz5WAC4Xo4Wc5uYYA5eKIiKw/dP6J7L2hnbvXkbfIQb/RPD4GmFy7tytGNjRh64++srMmb1eNhj7mKJbGNjNZYeaBeCngdrfEB3A7jfzTiGdfiYEA94MydT0qib66kLT3OjpHwbuJuAwd6MebkjadqpgWfmgKCiZSs0EsIXLzejVwGtRXgM181gi3/Yvq0DEECqWtcD3AGTCICsDiwhoA7CEgPeYuQyiGmYeQUSTATQAGBGCrnwhkc0eUMxkHhcPDHkMw7zK1wlUqQHXIkk6zufDMtY/xLsAbABdAFaBeS0Rxbhv77ENiDJgnlhJPpdIJo8GUB+aMQJ0MtFrzJwl5vkEvAegm4kUA1uAeSsQZYi5EUQz4X5d1WDsoW17N3hwi2EIKQJoIeasJupUwHIwr2UixcwjiWhM/3hsALBLSNbizd2T3EvAKb61z/xpeFk/LRb7FPx4dIroIa+bjH0sUHueiM5w2Zp7j589e8Ti6dNXBcjBvah/9a+gXx8EAN0XeASZlQAuKpjm1QPVp1Eu/0sbBsPtryh9p7BuCNCm5BDXN+7Mb76TybwX6QBIqS3AvoVAqyBULONaW0cycHaARcwz890geiIWjz+zYPLkdzf2CynHMQHM6n845XD4UGx0YNM5XQJAElihn8BplY/zNxTzYGpg/TAEGn2HgLvB/CSYn843NBQ29gtTOjvH9Pb27gWi/Qj4HAN10Y2YmchxfhB0KYnoWQB/L/X2PjqYl8OmdHYO6y2X9wDz5wEcB2BsZKcO4FwOvoyvgPkmrfW/io2N7QP9vRktLVULx4zZRWl9JCt1YmSTzDU1j2LVqtXw6zEyohnjHWebxabpyUlgBg70IYbXvUr9y+tGYx9baJ9h908aVBs1NZ8CcH8QfLvWttPag1fGFPBwGMa6Mox7uFy+BAE8MkvAvZro2x+vc7Uxuhobi0nbfgNu1zlj/hQClMBiD46uEtG/ox7/MHPcx8EgCawKpqqq6psAtgrakADwoAJ+12Wajw/2w0zeNB0ADoC/jLXtUTXAMQC+x8C0gPVzz6TjfKpgmk+KJ4YXzbzKz81MeYAJrIRtHwRgpwCr8nli/tUwogccyxpUXdF5dXXLADwA4AEwn5Po6NiTtD4DwNHw47SAmzGF4xykgR0CKl4PATdBqSvy6bS9KX9gXl3dWgBPAniyqbX1e8uqq48H8/kI38nBDY/H9vZGBj4b1GkNwB1g/lk+k3l9U/5A/3Wv5wA8B+Yfpmz7SCa6EMH13U2imEisTtn2owwc6VdYHWM+GMBNnjQGHOBD0rXlrfp6z0udfGTh6P+S4vqLV+TT05LrCU539WIPo7X+VxgGe76+/g0w3xg0sZjoqLxlHTnY5NWHIi4vEoi7B0Vh/Q8TzPQgkn0GEYeAuI/NSwKrQkkUizVEdFbAxHpME+1csKzDuyzrkc09VfyOZb2Xt6y/5k1zOwDHAgjWgwXMF4knhhzmNX42rwxjQA/iENE5AdXgawTMKljWnvlM5s7BJq/W0VEuptPPFizrOCg1FUR3RcndNFEwT8wSPVgqlxvzlnX6piavPk5rU1NPwTRvKJjmNDB/A8CyyBhSqbMQxOQq87OKaHrBso4tbGLyah2+Uc5nMncWTHMnJjqegUXRWgL4Xn+HHnmS86i17bQfp1sZeMiXIboOTf/bA2sGJoGllfIigfVSsaFhaYgG+9nw9+WG99lokfaBYjB7kcAyk3PnBuK0RAw4xIvFN9bbG/kTWPA3gSXFQysUWrXqqwDGB0ScpQR8sWBZBw2k7uAm7Al0wbJuo2HDtmXg/wCUAtLv/Sa2t8tLYqEeSOTrFVWl9UZ9OZHLTeo/wR0k1gL4XsE0d85b1lNuNFBIp7MF0/w8KXUogELYXS1p26mg2ZGA95jo+IJpHra4sbHTpTFWLmQyf6qKxaYy8K+w23FKZ+cw6jsZHCS6GTijYFn7dJnmmy7ZkYumeUu8z443R2YNKJfv93NPwcwHgdlwPZ/B7MfrgzCUCkYCi7V+xgNrTpmYzU4NxOTuwQmssE3oxYaGpWD29WsgAa9ool0LpvndpY2NKzb3723z3nsv9BemdHerHI/vGggjau1FktiZP23awkoIgXxsuwZC5cFMAM4IiDQvMdFOecv6u9sN5Wtr1xQt6zzqewY6EK9vKqW+Iw4ZXhSRr4WKNVHPRmXU+ngE67RHjoE9CpZ1lRe1W/Pp9EMlop1AFOqac0x0XMDsOFeXy7sUTfMWLxqbV1e3qGiahxJwWV/oE05Kvb2HAhgdIJHySqm9i5b1ey8e9ZlXV7esaFknMtG3EZyPSZtMYerUtwE866MIWyUdZxf3IxU6wOuOMbCoq77+FT+U+omJ1iDy5EqQQXSE305t2nY1vLjvq1ToamgULOsGAM0+NL2CmL+bN81dh/JL/yszZ/ayF6cLtd41EH7twSlHqoDrg/2LQq+PrUsCqwKZmM3uBSAdAFFuGw7ss6lXtzd5t25ZT5HWMxhoDYAODk+1to4VrwxrVoF9TWAx0DOAnzkxMOoCWljr3YqW5enrwotN861COn0ImG8Iq6sR8/EBEudV1nqfwRT2HqL9ks5b1o/6rxTqUE4ZREGyY04bxl5d6fTLXjdcNM3fMdHRALoRfu71d3JwOSbrO+E1y/tu0b9A5Ms4/0QCq8uycvCmDsUX/Pbmtcw7AKh2uZnVW65d+1IIg3bmcvkbXk5cBNwDYFo+k/mNG1/9GHjK7T5owPcE1pq+Y6Sufz3SRI9VRACkdY+PrUsCqwIxlDo5AGvA9QXTPGGza95sIvmGhgK03o+AV3zWRDXH48eKV4YT9vsEVt9VvPWS6ujYHsB2AVHXf9YC+/tW8oKoXLCsU0H0p7D5WaK9vRHBKcI/uyoW29/P0iWFTOYaAr4WNjvW53KjARwaEHHmk9b7Lqyvn++XAEXTvAfMXwBQRogpl0r3+LoOMbuawEplszPgx4ugzA/5pdP1HXV1/cobAzPGt7X5/ZSuF8mG51qbmnrCOOCLjY3tDPzMg6a6GDgyb1lHFSwr71pQSPS06/svYJf+6z/+odTnvVgPqLe3MhJYA7gC4iIjffcnwdtAqFisQd/rXH5yXyGdPt2L60MbXIMaGpaW+h59cXzWx5fEM8MJM/taR66qXF62QfnK5aAkR23W+vB3LOs9X6Ug4kI6fQb5fWJi0GLT0QERpQjgsP6XH30lb1l/BfDTMNmxR+vDAQwLgCjLDeDQ/sfVfKWQyTzAwJlhXgcWTZ06D8Drvs0PwE7bdHS4thaxUgf40K3eaqUe9UunsfWs+A+D6JtuN24o9QUAP/er85poFw8iw6fCPOhrgP9bAxwHoNGFP18GcHVPT89FS5qaVrrdl676+leTjrMc7p5O2rLWceq7PHjNc13MaGmpWsTsxfXcl/rvlVcCfr4EWDVl3rzx8yL2KsyHSXV0bM+l0u5ENCZSgTPwnlKqZbBH/9XKlUcy0SgfRX+ttHr1CX4nr/638bSsJclc7lBo/SIAv3xkt0RbW4Pn13GEzQ8cmOtB/n0DMKqr39nIjwSh6PdKKHVY0bKC8dgQUbl39uwTYzU1LwOYGg5Ho1kBkKLMRMcUTTMfFLUUTPPCpOPsjL66hmFgViDcifm0BZlMa1CUUrSs3ydtexeE+GMOAfeyF2WD1rO1q9L6YAA3uvT3/UhgPdeRTi/3y57rTGCV1qxpjtXUdMPl63VE9Hn4mMAiYFvXPZb5WYQYx7K6U7b9DQaexBAWs2agBcDXipb1qpebIrbtF6jvhT73dhBE28GnBNbiMWP2B/OWHgTnoX9pZuCd5Xf8DIBKvb2TEcEE1ljbHjWM+Xoul48CUXgrvm4ArTUStv2I6uk5Id/U9M6AfofoUB+P3K3icvn4xdOnrwqSHgvpdDbhON8g5n/6tl8wjM8AkARW6KIW8vOk/+p5dXXrvUI4fvbsEQBmBCCw+14+nc4GyWyLp09flbDtEwn4D/x9CXijNLW2xpcBuwVAlCuKpvlcwMYfw7ZPA/AGgC2DPl0wsE8A9pw35DOZu4Kmm2qlvtOt9b4AJodzK8/3gOhHPm4IPw0XEliJYrEGq1bt4YM+H/LTnmp9Cwe8KHgN7OLbNcLm5hjcOVX0kVzG2t7eVxFy+p9Qvn6I/twKYv5u0TR38zR59b+1lFwvhEhab+uXrRjw5DqCodTDFRMAKfWur4su0aQoqnU4cAsRHRX5+Bk4mKurbx3gjoDg44kMBs4N6imjomne4uvT3kT7QwgXffs8P+fPDZ5oMoYP3wNAlc8Jhsf7r3oFb8xb1msgujLobvZudfXMviXN13Wmc3jf63+Bo2BZeQYuDLoda9vaEgBMv90J5fL3g6ifjnR6eZivEhYymddBNM/Hufag/mLrQxuirF69D9yv5/0JNNGDvoZmG9hIexGgkmEYvhxHTEycmPbA4HO9uBrnCaXSOQCWbFZwxHw3XCzSPkAZ3H/Jg8iXBNb42bNHgNmL+ldL/Ho21Ref0fodX9snmhw1ndZms/ugr7ZRhTgRH5DI5fba2I9NcJypBEzwScrZRdMMdPFko1w+B8BKn2y4z4yWlioIoaF/nxfzcdwv2EjSYV+fVVQmorOCbMOe7u4r0FfXKbAoZt9P7Wii8/x6cGMgFPP5PwNoC7Idy7HY3gEQ4ydBLs9RtKx7ATyN8OJnbb2xiVxuyGtvM7Pn1wcJ6FxkWXN8nXc38B/u9UgJX/SjSLFSqsmDREZLVDaChalT3wbR2Zv4610MHFHMZD7nZpH2gRCPxVxPYLEHV1PXRaym5nMAtvBgzN7n17OpvkySSi30s30/T/S5ttn2P3Dz3o7MG924KCL/Tl8xnx2UulfrXUgaG4tgvsKn5rdYOGbMzhDCM+ZiMV+vdTHRgo38d78D5n/m0+n/BtmGS5qaVnLAC4Ez0V6++jkwp5hO3xbowThrVomAnwR6r8fs93h8qyoW+0Pg51XgkhDvw+7xWXdufLj1o/7VQ76P1/VuFC0rB28q9qcnZrOeT/4MuJ7A8uS0j4cU0umb0FcLa6CUAPy6p6dnWtGy7gtCH+bV1S0C0OXyBJVpam31vmYD88nezMB0ZyUFQYq5y8/2iShyQTMBo1BhMPPIjf6Q1r4ksBhoKWYyj4dBj1VVVb8DsMIXv/XJPsIms7vP7W/sBFaTn8Ix8OswGLG8evX1AN4JsIj+2pH5tyAKfBnJ0T09tyPAp+kYmObvxoiu2VDNvKDQX1bmdYSQfD7/LADfTrgR85AmsPpfNtze+8BIBTeB1T+Y7vBCCEOpk33ou/sTFdHsaEWdxFDqGwA2OsEy0MLArgXLOiuA1yjdnnir3quuznjZoUQuN8mjV3CWje7ufqKSIqDV5fICnzdVjVu3tW0BIfIooh18mtt/GRYd9T8P/zef9LSDeGmI0NrXBJbawGMuqdbWsQC28lG8F/yoQ7op9D8qcV0QZWtqbY2DudZHEVaV1qz5exjs2NrU1AOiawMsop/1r5iBv4RmbmW+JpRrwqxZJTA/4ON+fqcpnZ1DViYiXirtjyF8YG2gYRHi8Wbf98sbVHS57NVJi6P7X2PxciPq+heTWFXVHESMQt9LNedt4EdWEPOZfhVpH+AE4rpdysz1nrpzuXzyxsbzEHF/a1NTTyXFQEsbG1fA36+/aphh7CTRaLRJdXUNZx9e9yHgvbhh3BOyxMT1PrXcIJ4akvHU2jrWi33eBt2UaP17jaoqy2cV3RYmeyqlbg2iXO/GYvUADB9FeChor8ZuZO4O5An+VFfXcABJH0V4oWiaXWExY28sdjeAMkIIK+Xnfod6y+WDh6wvRN5fHyRqztfWrvF9TdjQfyw2NLQx0OpBQmFU1YgRJ3jc9ykuG3jhgsmT30UEKVjWVQC+CWDZh5clMN9CWk/NZzK/DXItFdrQpnKoBhazd69rMhsg+oonTQEVdX3wQ/j6MhsHoEis4PaOsNeCN0noj/vW3WG4tvCRNaihYTaAuT40bbnxipDggl9XVx/mc2IBsaqquRvYiPj92tkdYbJnV319C4D5AdxP+mrH/seRwjN3ZzKvE9AZNLnU2rX1fqy/H0pEhMqOb9XXLwbzC6FcHGpqHgWw2sdBO5TXCA/wXnx+KBBjdgA/cKdHCvmmV52eNH/+lnC72DXzXESYgmX9sSoWm6i13kcBh1TFYslCJnN8vqGhEHTZFZHrtmGiKV71J+E4hwHw4gj7ings9khFBkMeJPI3wuESkkbcx8plX073sFIPh1RlfmyiqmsdZ4p4a/Ah5s/5LEJxIx8x/TyB5fj9oM7gDUqMIL5+5nMCSzE/E7q1LoAyl/y9PghVLofOjiAKn8wAionEagIe81GEg9DcvNmv4yba2xs9iv0+On4N48FAxPIb+wFdLt/skSw7JBxnDy8aKq9dO8n1ce3BNTW/mVdXt3ZhQ8O/uyzrkf7i6KFg7dq1c/tyEq7af4qHg9ib5C/zXWE7qRGZ8Uw0c/KcORMlLI0wzL4ksIxS6d+hVBfgy+aZlZJrhAFnXGvrSAYO8lmMjb1C7V/dJObnQrkOEwVR7pSPbc8Pw0fjT9hRKbHjR1kzfsWK18SOXk6Bvr5GuGVi0qTNfyHXMLw/fQW0LqyvD8RJ2I0msIqNje0AXvRkMDB/w6MN6CQPjNwh28hg0l9U/i2X7e/JFcJULmcxcKA3s4W6sXJzC+z3U+NUjscPk9EbYZTyo/7Ggq7GxmIY1VUm+o9Pk0FSnDXYVFVVHQ5guM9ivLiRPYJ/D3MQvR5Kw5bLwZObaKSPrb8RSjtqHTi5lZ/jEZj7ysyZvaHbFwfQjoPY0z8AH2t4kdabfY1QMXuewFJEDwZozA4oGPcqcD16vONs40E7rn/5IuYFEILMPJf//hSPFpBvwJsXKBYU0umnKtVZ4lVVLXD51N4AFtyjZdhGF2bewodG7bDqa7FpvgVgeUXYSRhkToHO8H93rV7ciCON8Es03sDriAEPmAMnNzOP9NHRQ/mhvBRAuZlohI/Nh9KOBdMsYgCv0geRYkPDUgDP+ijC5iWw+q4gzvJ+oASj/hUwwAQWlUq3AvDi5bHqGODFxsP9BJZhzIcQZNy2z2i3X9ac0tk5hoAve6Svv4NIV6qzzKurWwafC7kD2H9SNlsvQzeiQbcfX4CVckKuM8/lZ3+/1AsbYaLjzACwh89i9Hb39r60kYDZt8SHQdQZRtsWpk59m4D3giSTAvxLYDHPC6MdF1nWEgArAyWUj4lICqkd+2OCMB/WuMfHtnfYnLIgidraXRgY5bHMy8YvX/58gObegS0azOzNsTHmb7od+ANw/Qphr9aSwAr0vEuu24fi8XFu/v1SqfQ1ryYw1vom8Rq85Pd8XfLotUnBF/w4gfVOyHX2tudrhySwAo3S+tsBCIZfXNrYuGIjfuRbwFz24eTikKk2YLL7eXKHA5bMGyTLA+ZXYsdNY1lYBS+Vy/f6GYb2xmKHbMYac4APMj8apKuuA38y1Lv6N1tVjRhxmssb0HEu92FN/xcGIaBoZtcTWFUuJrBM265mojM9UtdLxYaGtkr3GQ7AC0gEnNrU2hqXERxFB/PlC/DKkI/JFT7YSRJYAWXC3LlTQHSc735J9PgAfsy3BJbq7l4VYjPLyZ3/bQgozHYMlOzKz1pmYkdfWNzY2Algtn9mp02+RkjMB/og8EOBGrMD/cGJy5Y9CMCTYq8MnDUUT0xu4O9v6XIX3oIQaAhY4oEfu5bAWg2cBOaJHunqL+IxAJR6PABSjH+3qupEMUYUJyXyvOg0M/eGW2XUUwl2EgY4RcdiPwFQHQDHHMgT7eSXeGsNI7zjPnhzlm92VFqH1o4MBEp21to3OxJRaO1IAbPjJsh/j4/NH7gpuY6t29q2ANGuHsuqe5X6V6DW+4H+4CszZ/Z6FsgyT0kkk0e76LBbujwglspWMvCRj/sJLOZxLv1hRcDZHmlqWe/q1f8UhwGK6fQCAFnfXVepi+UUViTx/Eum8vcFraGYY72XP9xfyyNLwrZ3IuD4AATmi4rp9EBeyPTtJNHI6uoRoTW0v8W21zUJrfRRFzXhNWOw7MhEK330odDakUMse7/89/jY/JiJicTug/2laqX2BVDlsawtb9XXLw6S7dSgflrrvwAoebSxvhDMyqU/72oCS3twukfY7MXT9SSjWyewErncMQAaPVLUDYunT5eA7YPF7pEACDHl3XhcamFFz7k830BHoCC55/KTH9cWhYHY5eeD3tO6s7e4dyAPnpCPAXO5VBoRYlMHK+nuY0KbfXzJcgiEHxEsM/pox6AlZQenuFB/BCtkMq+DaJ5f7SulBn2NkJXy/PogAw8FzXaDWuzzDQ0FEN3nkbKmJWz7WBcmTQIw2uWNlCSwAo7R3e16AouYx7rgvwYxX+zVnKW1vka85UM2VeqegGy2LvDgsQvBW5v6kRipDbnaJnndIGstCayAkbLt0wF8KhBxudZ3DuTnNLNvAXNZqYlhtHP/yeOtgyQT+3iSjohCaUfTtqsBjA2UUFr7ZkdmnhDWuZeB0Mr+Ifws5j7oBJbyoYC7oVS4E1j9i/MfPZycLwazMZR/s76jYxQAw2XB34EQaEYyv+2BAw/50dqU4xwHYKpHanpqYSYzV7zlAwpdXc/Ah5fP1rHjmRirqflxaDc9Ia754OJG0I/EiBVWffUHs5N9iBolgRUgJsydOwXALwMyhhcVC4XmAbmRn4kP5vow2nr5sGGTXd+/D16XK330t7ow2nGNUsGzo48nIsM6HsfPnj2CgPFhX0PI32uE02vb2hIDjgHb25MMTPN6Xeuqr38laHYbdAKraFlPwLs6MI0pxxnSmgare3q2dN/avFq2lcGmtampB25fh9V6+BD7lcFEF3mopj+Kp3yMWbNKAO4LiDTfSdr2buHcMVCbONMnAlo/ntLO9H8NDx3LYrGpfgRBIX/yPFowKyMWu5aBUQEZw//oXyMGMgf6WXOnIZTmLpeDJ7efdgzrB4hyOXByaz/tSBRKO8aGDTPh4yMGQ0U+n38W/n2YprJhHDLgOdAwPD99RcDDA7kW7zVqEwYaA7jKw83ixUP5IiEZhvsvCEkCKywBo7t2GuLXqpK53ImebTyJ5hXy+bvFS9apm78HRBIDwLVhTED0dHffxcAicaYPbaCZ5/vQ7PDVSu0cymFoGPv4M/z9q5chfGxNtO3LAMwKzIaa6PrBxE0+irpbSE0eRLn9tOOOoXzQRSmx40eZNHnOnNBdByXD2BVRYNasEpgf8DEWHfg1Qh+uDyKA9a+ATSx4ScOGXQ/v6jxZyVRqyAoWx5Ry/4utUmtkaxmCgNHtBBYwZAmsKZ2dw8B8mWcTqtZXDfhLcoVRSKefAjA/IOJMXU10Zdh0uKSpaSVrfQyA5eJR7w86f06lUbk8K4zq0lrP8klf7eKs/pPKZk8A0fkBEuk/Xab55iB+3vZR1l2H8sOwh3PkXoGTidlPOw5bFo/vFDo7Mu8RNJEMwPGz/XIstkf4zMh7Rmb7pZSfdbAOnNHSUjUAhROI9vdYtt5qpR4Los02KYGVr61dw8DvPZTzkrG2PSRHxLXWMQ9GtZzACsOE5XYCawifly2VSmfCu3ov73b39v5NPGS9m2gNohsDIw7zd5LZ7ClhU+PChoZ/s1LbA/g1gP8Q8Mrm/gMgF+INVLtP/nx02HS1dVvbFkR0iOeqAt7LZzJFmQT9JZXN7spEf0OArq8w0VWD+nl/A+YRiWRyv1DZvLV1LIDABfnM7GvigzahCLSf9MdygUt8cHV1DoB/16SIQmVHMCsGDorKmqJrah4B4Nfhk9FvjRq1+0bnwI6ObcHs9Um9ZzvS6UB+aN70ZI7Wv4dSPwBQ44Gc2wwHzgVwwWY7qVKGYnZ3XAM9ssUMBe7aiWjYUPyZRHv71gyc56Fe/rikqWmluMf6Kff2XmvEYucjKIVIif6UtO22gmX9J0x6LKbTCwCcNRR/a0pn57DeUukpAOkw+lRhwYKOZCrVA8DrKyHb1TrOtoM8PeIrwwzjCB7CE66DCFbb+8soCD6RsO0dGXgAwLAAidVV7Oq6czC/oJltPxcPAo4G8HhoAsyqqiMIqAqaXFuWSh3L4vGyj3uBLwD4UVjsWMN8GBMFruxBvrZ2TdK28/DhZdv+uPEINDd/PSw3HyZms3uSUlF4gbBvL5pIrE7Z9qMMHOFLTNGXwHxmgz6itefXB5nooaDaTG2ysRsalgK43kNZv5dwnM1+8tvw4ASWikBRO2Foop0h8SelfgRgtEdSd1fFYleL8TbMoqlT5xFwf4BEqgbRXbW2na7QsUY9pdLfAIS3JkPfxtWXE2Ra62+HytzAGf5E/fL4gJ/U5nI7E/AEgK0D5Y9Evx1s4LnIspYAWOab0ERfGD979oiw2J6ITg6iXK1NTT0ELPBxLpyWsO0dQzN3K3VCgMXz8zTd1slk8pCw2FEZxolRW180s2/XCAd0ktKH+leaOXoJrP5f/hWAskeyDifmyzfbGF7UwCKSBFZIdkQu//nNHhuJtrYGBr7m4Wbopnl1dVJce6BBS6AE4okaeCqVy1mVZouE41xEwAnhdyp+yae58EvbdHSE4jnslG3vC58SlUz0EgR/xngut5fW+jEAWwZMtLfKq1Zt6ou9c3yUe6xRU3NyGGw/0XFmANg3sNM20OrzVvY7YbBjMpfLgDmwV+XI3/EIhMSOqdbWsWD+YvQ29Xw/vMtpfJztU+3tyfX9x6bW1jiI9vF4PHQusqw5QTXXZiWwuiwrB+BmD+U9KZHLbVYRRy6XDQhC32TlagJLD8F9ejKMq+HdsfmSAfyfOMbAKJhmM4DXgra3YK2bk7lcplLskMxmf0LApZHoDNETPrU8rKpcDv41FGZi4Ke+Na/1ExD8GONfI60fh3cnkQfhkvyLxdOnr9rExMOzPgfsZ4XhFTvF/MNAT9vAsz474fEbCn4DQ7n8/c2NO11VI/Bvn0U4INnePj3wy3BV1TfhTfkgT+m/WebXWCat1HpP4C2Px3cHMNJjmR4Ksr02fyJR6ifwLmNJpPUfNuf1FKVUrzfrmRCGcNFdZ928E1hJ2z4awIEeKuPG/qS0MFCdMf8kiPEemJ9KtbfvEmnlM6ukbf8BRBdEpUuqXPYzQfLVVEfH9kHWT8pxToB/hZwLCzOZuTLreYdp29Up2/4riP4EIHB1cxhYVF6z5g+b/PtaP+NzF9LL4vEzguwD/R+tPx/opWgjtWs8oJqJLg+yjiZms1NBdFqQZayKxfy2I5FSgX5VeoJtjyOicyK87ATyGiETeX59EEpFO4FVSKezAP7hoczbJVOpTa7XQYbh+guB2vsivMKmLRXunmxi3uQE1rjW1pHou6LrFb1qCK7oVhp5y7obQPCKXzNPZKWeSdj2l6Oo9/pcbnTScW4D8I0o9aursbEIwK8kicHl8nVBPZExpbNzAve9WOkXT8qM52HA6zgz1gD/YSDIc9iFm3r6CgCqDeNZ+Hdl5X0uCurpnRktLVWk9W8R8I/CE5YvbwGwylchiL5Ym8vtHNhgk+iX2JyHwzygv3xG1tetG3BQMps9LKg6Mph/wsCoqK47pXL5Ht+GMHDgjJaWqvXs6b1OYK1GPN4cZFsNyVFO6juFVfLQyJfUtrUlNumXtXY9gaWYR0AIPi7biTcjgVVdXX0RgJSHY+qmBZlMhzjFoDeNjOBeX6sm4K9Jx/mjadvVUVF50rZ369H6NQT8q/xmjEU/T2HttLyqKniJbGZVKpVuADDOx7H+OATXGT979oikbf9SMb8IYIcAi/p60TSv25w/0P88+Wyf+zGGDeN6MAfuatei0aMvBRD4AuWvzJzZC6IX/I7ntNY3pLq6hgdNPynbPh0DKVIdhKUGeDoA+8prknPnbhU03dTa9sEg+kqU15/FjY2dfs3JDIxaPHr0J06YT+nsHANgZ499sDlfW7smyLYakgUrn07bYP6Hl0bWhrFJX2KpVHI9gcVEIyGEgZHujn9auUmLhONsy8zf81APcvpqMyiY5p0AXgisgMxfXwO8NrG9fe9QK5rZSNr2+QD+zUBdhF3qTl/VTPT9pON8KUgKSTrOzxk4yEcRutHb+6DMdi7S3BxLOs7JsREj3gRwFoAg1ytlxXwmiPQQ/K2nAjC3HpBwnAuDpOCU43wawA9C5MFPBUCGqdzd/esgKWViNjvV55OzgwuKmYNgxwTFYn8LUlJ58pw5EzVwLSqgRA75eI0QRJ/5+L8qlcuzvF4POcCvD/5vrA6ZzvtOYfV6KPsxKcc5arC/ZFRXr/bA8pLACn4wrAAMc3kSXL4pm3it9bXwrnA7CLhRTl9t1oLDTHQ2AA6wlFOVUk8nbPvPk+bP3zJsKk5kswckbftVAJcj4NcQNpe8aT5NQKev+zfmv6QcJxBPeidt+3v9CQ0/eaAwderbMtm5QHNzLJnNnpJMpdrAfD2Yp4QgwLm2K5MZkno5xHxbQPp0Scq2TwrEmG9vn87MtyLYScyPbQMoEHYE89dS2eyZQRBlgm2PU0QPwPvi05vMWq3vB+D7yRMGjkg4zk+DoJNUV9fwUix2L4AEKgAN3OPf8P3kK53s/fVBsGEE/oPdkCWw8qbpAPiLp07G/IdUa+vYwfzOiNWr3T+BFaLJulLZur19BFz+ksDMg05gpVKp74PIy6Oiaxi4RDxi8yia5vMAbg/8Hhv4Srmnpz2Rzf5g67a2LYKu10R7e2PStu8nosdAtH1FOFPftdQbfZYizsz3pLLZz/kayDrOBfC2FuD61vQbZJYb4rHd1taQtO3Lk6lUB4iuA5AOg9wMLFLx+JAVMc5b1ksAgvB4CjFwbcJxjvPVL2x7Ryj1KIAtwuTP/TdRXg6EjxL90u9TtKnW1rGq7xWz+jDZcWlj4woA9wdiKwCcm3Ccs321Y1fXcF679k6P4xK/9/OvA5jvU/PbJm374+VjDvR0/gBaF9bXzw+6nYb0eGKJ6FIAKzwc3BM4Hr9qML/T2tTUA7dPijFvBSHQGMDWHkwCg0pgJdrbG31IJl1VsKy8eMQQTKbl8vewKafuvGccEV1RbRjzErZ9cRBPZCUcZ89kNvtPUuoNAIdVmi/1lss3wP8TfdVMdFvCcc4Gs6fXBqZ0dg5L2PafEYxXPhcX8/mHZYbb7H2RSra3T0/a9llJ236BDKMNwPkAakM1zzN/a8Hkye8O3UaWGEQ3B6R7VcT8j4Tj+PIyYTKX25+AZgDbhNLHg2NHA8zXJWz7W340XtvWluB4/CkCZoZyqgJuDoxLMf88ZduXer0GA32P5fDatQ8hJPXLhnJOZqJ7fWud6H/6ntjRMRmA5ekaRxSKcglDmsBabJpvgegKj/vwxWQ2e+ggf2eJy943QXarwcaIxSa6PriUGngyg1mRUn+Dy9caPz4OqpW6QrxhaOhqbCwycEGIRB5LwKXlnp4FSdu+KeU4h4DZtysbqa6u4Qnb/nLStl8l5mdBdBw8vEobJPoLiT4VhKmSmH+ecpy7xjuOJ0HlxGx2am+p9BwBQSkW+3fMmlWCMHCam2MpxzFTudxn+hNWtycdZzGUeh3ALwHsFtLA9q/5TOauIf+75fLNAeqmIuarE7b99/7XkD1QLKuk41wArR8BMDqsbh/r7b0V/r8q+YEdgd8lbPvPUzo7PdtX1maz+5QN4xUA24XVjlv29DwM4N2gyMPAxclc7o6xtu3Z63+1jrNtt9YvA9ivEpcw8vEaodb6fwksKpcP8N7hgl//CnChlgjX1PyaVq36BgDvnuUl+lN9Lrdt/4suA2ER3LzLSzQRQqBRWk9kIpfnAF420J9NOs53AOzh6QRN9ONBjBlhABRN849JxzkewJ4hEnskgJOY+aSk4yxmx7lVAf9aWyo923+c3r1NUltbgmOxQ5n5MF679gACasSL+uco4AoNzArIBvrIGPM+Kcf5YT6dvhZEQx6kjZ89e0RsxIgfgvkHAOIBMUM3gKtCsuHeO5nNXuN5u0ptwX11P0cQMJr7EhCTmDkO5ugMSKL28qpV33Vl3WhoaEva9ksAdgmQP50Yj8f3Stj2t4uW5dqVqoRt70iO80cAu4bdReZPm7YwYduPE3BwgOz4ld5SabekbX+tYFmuPTaTKBZr1OrVP9LMZ1HI61S2NjX1JB3nVjB/PTBCMX9uOLBDwra/UbSsR11rp7k5lqit/a5mvhQVvB8rdHX9O5lKvQ3A8xtVimj/GS0tVa/MnNlLzAeAPD18tyyfzz8XBhsN+SRTTCRWJ2z7YgL+5mE/Ut1a/xrAaQOcCBa56hDMcgIr8NGhSri9uVbMiwa08Le1NaCvOLWXOOOXLfuT3B0c8iBHK9s+WQOvI5y18MYT83cY+E61YZST2eyrIHqGmF+AYWT18OG5YiKxaXUEmY1ULlengZnEPBPALA3s6MfR+DDQZVmPJG37xQAFdmOZ+c9JxzkHjnP5cOZbHMvq3tw/Wp/Lje7R+usMfB/M4wJmhmtDdMW6EUSN3sdVH6yjHN3huIqIjl48ffoqF9v4BYDbAtbvyQTcl3Scx4n58rxlPTVUf3hiNjtVEZ0P4HiEqFj7RrcASv0cWh8cMLG2A/Bs0rZvMJh/MqSP9jQ3x5K1tSdi9epLOAQPMAx8K0e/YuavBMw36wl4JGnbdyiiS7tM880hnMgp4TiHE/ATMG+HSmfWrBJs+0EAnteSY2DUojFj9gLz03Cc/T1u/tGwnDh3J3Doe+78Va+L7jLR8UXTvGVjP5ey7b/xQJNdm0iJaPxi03xLwrBgknKcK5n5HDfbUIDZZVkbLM5q2nb1GuAFADt6OvCZv5DPZO4UT3DNv77CzH+OaPcK3Fd0OE/MKwl4D0SrAaxm4D0CRvXvALdiYByAcWCuR1+R5nil+gQDlxQt69JB+VEu9xnWOqj1CN4BcAuUuqtKqefm1dWtHegvjrXtUcOAWcR8HIiOADA8gP3rYaWsYjq9YFA2s+3fMfAtCJEZuv17y1tdbsVIOs5ceFzvZJC8CuCmWG/vrfOnTVs46Og7lxvdzXwEmE8CsD+GuIyJK/s4pXbuSqdbBvM7yWz2pQAXvS4xcBuYry9a1pObepq2tq0tUVbqRCL6GkLwAAMDBw/25FLStm8FcExAu6QJuF8D105cvvzhV2bO3KTazqnW1rEcjx8L4KsAdgh+1oJOLpimJ4/cpBznKGa+y59u0s818z+pb871suFTCqYZikdrYi4poKzb289QRE/D5ZfePhaU/2l8W9uL/fVDNrBP4IVuH8kzABOAJLCCuyV1e5PIRixW2NgPrQH+Dx4nr0D0eN6yJHnlInnT/EvStg8EcHQEu5ek96+IE33i1AV/MMbEETbXj9Lph5LZ7MsBDYbGAvgmtP5mr9ZrU47zMms9F0TtBLyliVYq5mUEVGtgNBNNAnOGgO0BzAAQ8/ho/GDnyWsHm7wSIrhVAK50PXnVv28mx/l5wD987ARgp1JV1a9Stj2X++r0vQmlsgC6VG/vSho+fI1eu7aGY7ERqlyewEQZBhoB7N2t9U4I+fWyAZkSuIKBO4Ia9xFwAohOSDjOIrLtx5i5GUSvl1evzq7zlCEzJTo6aqF1IxHtBeZPaWA3itDJufWM/SsouAksxcARBByxaPTot5O2/QSYm5VhtKzSOvuOZb23rl+a0tk5oVQqNTKwB4hmMfPeAKplpv8kvatWPRqrqVkDHz6wMfOnwbzE4z2SLgGhebDGtYVkYUPDv5O2/Q8AJ3nYn9Exw7h5RkvLPhvKRrNSi8jl4Ir6vqI9L1NAYBcm0+Umlm7sREL/6YozPe56j9b6O+IB7tNdLn+52jC2Q9/mXRA2DcM4D1o/Bg8/Bm0Cw5h5bxDt3T+/gpjB+CChSeFKaK4A8+XifBXPrUXTPN/DQXTjmr6XiBMB1wsxMA19/wBa9/0fwwB6egClAK2hqTJvh+ct6+5kLtcO5oZAGxGYAOCLRPRFAIjV1CBp20vQ95r8cvQ9KjQSjjMO7z8wVEEfpoqW9WrKth9l4KCAi7oVgGNAdIzWGsMBJG37XfQVol/BfUnLkQC27i2VRnwoSyIz/AZYPH36qqRtPwbgsz40vy2ITva4zZYw3Rxz9fhuVSx2Drx/Vn63haNHX7aRThc8kMOU4R9QmBXcP/K8wbopk+fMmchaX+d1UEpEv1mYycwVJ3CfpY2NKwzgCwBWijaETaWQTj8B4B+iCS+jc74oRLWvBHd4ajhwMoi0Vw06ltUN5stE9WGfQEiD+aKQSj8OQD36bgZMBVALb1/HDhZaXwRAh1DyLfvtOJ2AJgCTAYyQwTnYcJHv8W0a6bObd30FHgqTbVxNYM2rq1uEvq9JXhv9B8lcbr2Fz0rM7R54vZy6CCjj29snw/0jofkN+IYqVVXdAGAbj7te6O7uls2xhyywrFYwH4/gPK0thJAS0ffRV3NKcH8T15K3rN+JJirbB6qVOnIoHikY9CJtWX9hoEWsEG4KlnU7mJ8QTYSbfEPDSwxcK5qoTDTRA5WyfzeUejBM8rpeQLGQz/8OwH+97hdr/fdUe3tyXf9xZF8BYrcdckcZ+sGkKhbbwYNmsuv7D0nbvgDAgZ5vyonOXtLUJKeBvN7IZjIPEPNZoglhU1lsmm8x8APRhOuUAHxtUwsbC5HgtVg8flBHOr3cl9aJtGI+A+E89SF8OPgFvg2gRzQRdkPq8yAfkCqSRZa1hIHnot5PBhZ11de/GiaZ3X8BZNasEiv1Ta8XYwImsFJ3mrb9ieJ0/V/V5rksQn19Ljdahn8gB+qOHrSxzmt6yWz2UBBd4sOm+PGBvNApuEM+k/ktgF+LJoI6JQSfomleK1/0XXeEXxYt61XRRMXyGkqlAxdMnvyuz+vFiwRcJ+YINwszmblE9BvRRLgpNjQsBXChaKIyIeCeCujjw15elx8KPHnCtphOP8tEfhzJ33Ut8Id171Rdv0ZIveXydBn6QYxS2P3TcUSfSGAlc7kMiP4B75+OXlHu7f2KGN5fCqb5fQL+JpoIFItB9OdQSErEvbHYiQCKYjYXlgXgmWI+L0FK5dK8BtivMHXq20EQRmv9QxAtFLOEm/6yDTnRROj3b3+GPMxVkRjM91ZANx8Km8CeBdLlVavO92MSZ+C0hG1/cx3BgOt1sLRSO8vQD1qUwgTAdbvEqqo+ksDauq1tC9L6bgB+nMo7d9HUqfPE+P4nIPKm+TUAt4oyAsEaYj4CzPPDIvBb9fWLWaljAfSK+YZ0n7Coqrf3OMyaVRJtVCR3DAc+vb6n5/2g/9THSZCrhKFmSVPTSqXUcZCrhGHfv5VZqeMhVwkrjgWZTAeY34hwF3urlXosbEJ7lsBaPH36KgK+7MdiTMBVE9vb9/7ojtWTQu77yNAPFon29gyA8S4vdAs/cgWBmYYZxo38/pPT3vJkwTT/JJYPziaokM+fBODvogxfKRHRiflM5sWwCV5Mp58FcK6YcOh8wWA+dv60aXLapfJgMF9eMM1j/SjYvjEKpvkkiC4XM4WbrnS6Rebs8FNMpxcwcBpCUnZAGMqtO90T4e4961vNx83A06tMect6mtZ3pc9dqpRStyccp/Z/zsj8mgft7gVmJUM/QA5vGHu73ojWcz78/yYc5yIGjvShuytL5fLpIJLFNkjMmlUqmObJYP6zKMMXysR8ct407w5rBwqmeRUkCTpUG9OzujKZZ0QTFcdqJjq+kMlcGOTaH4V0+lIGxD9DTsE0fwPgPtFEuCla1r0g+q1oorLQEa6DxUQPhVFuz5Mr3T095xHQ6UNfxxPzg+8XVh9dKr0OwO0vbmNTHR1NMvQDNFCBfTyYDF5+/3+nstkTCLjEp76eu7ixsVOsHsioWRcs6+sg+okow9t9CDN/JZ/J3Bxy/+EJy5efBuB+MelmqBG4NG+aV4smKo65pNRuRdO8NQRjvWyUy8cDWCBmC/ecTT09pwJoE2WEm+HM50pSubIomubrAOZHsW+aWRJYA2FJU9NK+HcEc7ture81bbu6tampB4Drp7BY6wNl6AeEvvpXn/Kgpf8AQMq292Wia/viJM9pLprmH8Xowd7QFkzzIjCfCqmP4QU9THRCMZOJxOter8yc2Tump+cLDDwipt2U5YCvzlvWJaKJiuOm0urVO+fT6f+GReCuxsYiKXUAgLfEfOEl39T0DoADIcnIUONYVvda4HAvYkghOPt1JopcMXcCOhdZ1pwwyu7L9ba8ZT0FwK+6PPuuBq4FM4HIi/onh8rIDwa1HR0zACTdbqeqt/elWsfZlvuOnFb70NWVBrNcHQwJhUzmegIOluDE1UX6PRAdEooTF4Ogtampp7en5wvoT5oLA/aHa4uWdaZoonJgYBERfa5gWV9aPH36qrDJn0+nbWL+LIBVYs0Qr/eWlTeAzwB4V7QRXt6xrPdivb2H+nSjSPBn33BPBLv1YFgF960+U3e5fK5fA5+AE1K53P+R1i950NzeY217lAz9AGxgtT7Mg2YWlA1D9R/JHOPTRv2HCzKZDrF4iIITy3qKtN4JwAuijSHHLgG7F0yzOYqdW9LUtLJaqUMAPCmmHtD6/7u8aX5VEvwVxd9VT09TmOveAUA+k3mRiI6GnNgNNQssq5WJDgewWrQRXuZPm7YQSh0MYLFoI/oUurr+jai9QqnUw6EV3a+GlzY2rgDz8fDpOXBm/gETzfSgqarhfacrBP9xPYHFwFxW6kEAtT4FZ/cWTfMPYuoQBicNDYUxPT37AfgV5On0oeLhqlhsl7AekR4oHen08jE9PZ8GcJOYfL1oAN/PW9a3QVQWdUQfBlpBtH/Bsr7Yf30r/OuEaT7MfdeXVlagSSOT8Cma5nNMdGDkAuKBEZlThPl02oZS+1ToSazKOg06a1YJwAORmk/j8dB+2PX1hbx8JvMiiM7zUQSvrhAcK1tJf0k5jsnADLfbIeAAANN96uZ8FY+fKicLwktrU1NPwbK+D6UOApAXjWwyPcx8bsE0D5tXV7esYnzHNE+WhwHWyRpiPqZgWb8SVVQEbxPzd4v5/A4F04zcycSiZT2qlJqFCrp2zkALA/+IlB1N8/kysDeArooZmcwvE1GkPrIW0ums0du7J4DZFWNHonnMfGmlLSzEHKU6WE/ma2vXhFV4FYCB/yv4l9H0qv+Hvv/6oeAPmvkEj5oyfOpiL4DjFkyeLHUVorEhesKIx7cn4Fr48+BFmJnLwG7FTOZKEFXWSbb3HwYgOhmVeUJjnRttYp6Vz2TuFGVEnhUEXLYGqM9nMr/p/2IeSbrS6RZSai8AlVAuYIUiOl65/3K45/SfDt6DgdaoG5GBRcR8FJjXRK1v86dNW1it1L4AnqqA8bgK5fKRAJZW2gLTu2bNIwDWRGQ8Phxm+X1PYIGIUSqdgmh/gRi2VuvPy97SRzcDjo/0xoDo/IJlSSHnCLFg8uR385b1ZQJmQZ7eHgg9IPpxVSy2U9GyKvp1oIJp3gilZjDQUtHzPtE/q4l2yGcyL8rwiDTvgvnyMpDOW9aP3rGs9yqh0/l02i4DuyHkgchGKAM4LW+aTmTna8vKD1NqTwC3R3gP/p5iPjLf0FCIah870unlw4FDQPQbRPfDYy8TnVRoaKic02Yfov8BkMciETcaxoNhll8FQYjC1KlvM9FxAEoR9vuTZY/pD6lsdlcAjRHu4gPFdPqXYumIBimW9fSYnp7pIDobwDLRyDp5irWeXjDNi+fV1a0VdfRda9iyp2dPIroSFVZTjYD3AHwpb5ondKTTy8UbImvnTgDf6+npmVTIZC5cZFlLKk0HiyxrScE0D2Wic+BTTVkXKRNwcsGy7oi6HTvS6eUFyzoGzF9HRE54fIh3oPWBlfAhwbGs7oJpfpeBIxG9+mZrGfh80TTvqeR1h4EoXCN8c2F9/fwwd0AFRZCiaT5PwIUR3mjtU+s428qW04fJhuibEe5eF0qlU6TuVbTpr2/0S5RKJhP9FhG8SrGJzGXgiIJlzSo2NMgptXX4Td40zyVg/0q4otLPA4p5x4JlSUH7aFIm4F4i+kzeNM2CZV21pKmpsq/LEnHRNH9BzHtHqJh0mYCT85b1j0oyZSGTuYaU2hXA3Ih06S1o/al8Q8NLlWTHomXdx0Q7gPnZiHRpFTN/tmhZ91f6AqSB+9F3MjTESwY9FHY7qCAJkzfNKxHho9Ca+ZsQPCXR3r41gGMi2r0SEx1fmDr1bbF0hWxup059u2iaZwIwCfg9KjeRlSPgK4V8fvuiZd23OX+ImT3ZiJBH7axzbbWsp4r5/A5E9B0AUa2T10ZEny5Y1uELMpkOmS0ix4sAvqfK5Ul5yzoyb5oPV1yNu42N80zmRT1ixLZgvjzMawMDi6DUwZWWvPqfHdPp/w4HdgRwAcL90tsL2jB2qdTrZkXT7CpY1r5E9FWEu15UGxnGHsVM5jEIWGRZSxh4LtSdYJYE1tDu8InLfVftFkTU70+SYu4eO7hSpwMYFsW+MfP5RdN8TqxceRQsK5+3rDNUuVzPwP8BqJQk5psEnFTI5xvzlvXXoSjSrIi8qcmhlL/r2qxZpbxpXo1SyQLRnxCdK/vvAvjehOXLt8+b5r98n5eJ5CGNoaEXzE8AOKtULtcXLGu3gmVd1dXYWBTVbCBoTiRWFzKZC0mp7RDGD8LMT8RjsR0L6fQT6xhby7wWR/ddR/Ycx7K6C5b1U1ZqGoCwPUDBRPTzCcuX77uua0rsQykE8smOINJ50/wL9fQ09K+7YUu639TT07Nzvr7+jXXsaTxf69gvO37Sn+4J8TKxLJ/Phz52pCAKlcxmdwDRswBGRHB/cUHBsn4q2yz3SXV1Dddr13YQMCGC3bupYFlfEisLAJAoFmto5covou9L304R614PgHtA9KdCOv3UUF+XTbW2juV4fB6ALVzsw8oyUB+kGj0TOzomk9ZnEfOXQ7rWdgH4dXe5/NeljY0rAjMWHWdPis61EY9zBfgvEz2ttH46bhhPSP2yIdlPHwqiC9FX7D3IvE1El+bT6d+v72TdxPb2vZVSz3g5xxRMc0oQTvolHWcWmC9C36MugYWBVlLqzHUlIN+n1nG21cxveBiDLquKxSYGoT5mwrZ3BPNFRHQEgnaI5KMsAHBOwbJuW69Pzp27FWKxLgDDvdoLlohqF5vmW34rZ0pn55jeUikLYFwIl4XbCpZ1bNjXNgqqYAnHOZKY7wz4AN8UlpZWr57S/5KB4K4PnUHMV0ewa88PBz7lWJbUQRI+QaqjY3sul08F0bFgnhjWfjDQQsDNvYZx81v19YtdDg6+BObrXFpvmJm/XMxkrgukv7S2juWqqm+B6AwA2wTfMfgNEP1iwvLlt7wyc2Ygi1YnbfsmACfJbLReNIB5AF4D8AoDr8Ti8ZcXTJ4sp9fcGue2vR+A8xg4KGCi9QD4gxGPXzYQ+yds+x8EnODNEoRjC5YVqJcBk7a9G4DzABwesBjubQYuLubzfx7IyeiUbf+OgW95tGZ8vZDJXBMkO07MZqcqoh+i74X0qgCJtoqBK9WwYT/P19auGYA/ngXAk0ekCLg0b1mXBGlOZeABhO0DINEpBdO8IexrGgVZuJRt/5CBn0VtI8FE5xRN8xeypXKPptbW+LJ43AFQG7Guze81jF3dDuiFKEw0rBIdHXuQ1p8n4AgG6gIucRl9dW4eJKVuz6fTtqfrjeMcopl/TMCMIVobmYFXFNHFedMM/FUe07arVwOHUN+G+nAANQESrwjgNmK+JRQvWTU3x5Kp1KUAvgNgZAXOPisALAPzIiIqauYFiqjAQI4MIxsjysprof6QsO2dFHAaA8cC2NpHUd4BcJ3B/IdB1axrbo4la2svBvMZALZ0STabiM7Nm+bdQbXjJNtuKgNfBtFxfn6oIqBTM/8pVl39l0EloJlVynHOYeBsF/1wAYguKpjmjUG148SOjslGuXwaAycCSPsoyltg/ovS+g+DvaadzGZPAdGlACa5JRsx/zRvWb8N2oNVE7PZqQbRTxn4DIB4CJYAXSKaGIRTbEMw9wSbpG3fCOCLEdtDLK2Kxax5dXXLZDvlUjCazZ7JRFdFLSggw9hrnXfRBWFjYyKXs7TWB4L5ACLaA8D4AIjVxsCzYH6SyuVHg/AgQaJYrIn19lZv7t8pVVV1FxOJ1WH0lXGtrSOr4/EjABzNwH4APK/dSEAnEz1KzLfkTfOZMBbsntLZOUyXSuleomFRnVeoXF4VI+oBAN3buyw/bdoyKa4efGa0tFQtGjXqYAAngugweJNoLYP5BSj11yrDuHWzkpjNzbFEbe3EmNZDenpFVVWtnldXtyg0hmQ2Erb9KSI6CcBnAYzxoNUeAE8w8MeiaT64WeOd2Ug6zkSDeUiDf9Z6bajq5TFT0nF2I+BEBr7g0f6sTETPg/maYcAdm3Wrg5lq29snklLDhljAnoJpFoO+pkzp7Byme3sTg/kdbRgjWOtXAcQ8FPWlgmXtGom9R9AFNG27eg3wJIA9IrXpI/p53jR/INsoFwL1vpo2NoCxEeqWZuBIecJWGCrGt7XVVSm1O4AdNdG2BEyDe1/QygByAN4A8xtM9IYGng9STShhAwGS42yvmPfRwL5EtBeGvu4DA2gH8zNE9G9N9HTRNLtE+YLgAX0nBncGsB8B+zGwJ4bqWgzRQgCPMPAv1d39WL6p6R1RuHtzdW1Hx45l5v0I2A/M+2DoajvmGXhYET3c3d392JKmppWicNfsSJMcZ1qJaBYx7wdgXwzdKbUlDDyqmB/icvkRecXcP/pLJXl6ypOBS4qWdWkU9EdhEHK842wTY34JwOQI+W53qVyeurixsVOG8dCSdJyrwHxmtNYz/kExk/m5WFdwk3GtrSOHVVdP0VpPYaJJRDQRzGPBPBZEWxHRMDDX9C+EMep/yY6ZlzFRLwFLQfQ2tH6biBZq5nkGUec2y5cvCGq9ImETNl7t7VuTUhaILAAWmC0QbUXMW3Jf4DsCfSc6qgGsAbAcfdfKVve/IrQAzI5SygaRE1PKlitlghAQmptjqdraKSDKsNaNIMow82TqO4k5sn98v399710AK8C8AkQrAMxj4E0iautVqlXKHfi6cTQm2fZkrVQGWjcwUQZ9pQRGg3kkiEai78QWEbCM+23IwAoCOhloJaI5ZeY35WOTr3akREdHLQEWtM6AqAGACa1Hg2gE+mbbAmEAAA4YSURBVMblKAAGgPft9x4BKzSwgIA5DLQSMKdgWXlRaDBI2fZfGfiyl20qpXbuSqdboqA/Co2h+woTPwt3X4rymgcKlnW4DOOhI9nePh1KvYxgFUXcXK4rWNZpYl1BEARBEARBEISQwqwSjlMgYIJnTQKLiqaZCFodsU0lNC/85evr3wDRkQCi9JX2sITjHCcjecgmBIOV+iuilbx6bDjwDTGuIAiCIAiCIAhCeEk6zi5eJq8AgICHo5K8AkKUwAKAgmk+ycBx6L+2EgWI+eoJtj1OhvPmk8jlvkfAzAh16YXS6tVHbVZhRUEQBEEQBEEQBCEIeH77ipgfjJICVdgELlrWvQScCiAqr9xsbQDXgplkPG86tY6zLTFfFpkOMb9hxOOHLp4+fZVYVxAEQRAEQRAEIfR4ncDqjRvG41FSoAqj0HnL+jsD34mQHQ5LOM43ZTxvGuNnzx6hmW8DMDwiXbJ7Y7GDFkye/K5YVxAEQRAEQRAEIdwkcrlJALbzuNlnO9Lp5VHSowqr4EXL+j0Bl0bFEAT8MmHbO8nQHjyxmpo/AJgake4sYKL95eUeQRAEQRAEQRCEiMD8Wc+bJHooampUYRY+b1mXAPhlRGxRTcD9qfb2pIzugZO07e8B+FJEurOEtT64aJpdYllBEARBEARBEIRooJhP8bpN1vrBqOkx/HWXmClp29eB6ORIWIT5ZRo+fN98be0aGeYbJpnNHgqiewEYEejOMgY+VbSs18SygiAIgiAIgiAI0SDhOHsS87NetklAZ96y6qOmSxX6HhBxwbK+TMC1kbAI0c56zZp/oLk5JkN9/dTmcjNB9E9EI3n1tiY6QJJXgiAIgiAIgiAI0YKYz/Wh2QejqMtoJEmIynnm01OOs5qBM8LfHToqkUrdUGT+EojKMuQ/SrK9fbrW+hEAW4S9LwwsMogOLJjmm2JZQRAEQRAEQRCEoQ66WCUd5wsADgHRaAIcMD+Ut6ynXY9ds9nD4P3rg0AE618BUbhC+DEStv1/BJwbke5cVzDN00GkZdbpY5JtN5WBZgDjItCdBVDqwEI6nRXLCoIgCIIgCIIgDC3jWltHVsfjdzJw0Dr+83Nl4KuLLGuOG20n2tu3JsN4GcxTPO72suHABMeyuqNmTxW1DhUt64dgvjgi3Tk16Ti3mLZdLVMPkLTt3cvA04hG8iqnDWMfSV4JgiAIgiAIgiC4ALOKx+O3rSd5BQB7GsBrSdu+PNXVNXwom04UizWk1P0+JK9AwJ1RTF4BEUxgAUAhk/kxgO8D4Ah05+g1wMP1udzoSp57ktnsoQAeB7BV2PtCwBxVLu+zsL5+vqwqgiAIgiAIgiAIQ0/Kcc4B8OmN/FgcwPm8du2bCcc5DsybnSNJOE4trVr1BIDd/Og3K/XPqNqUouywyWz26yD6PSKQqCNgji6XP1dsbGyvqFmHmZK53Flg/j9Eo2bba2Xg4EWWtUSWFEEQBEEQBEEQhKEnlcttx1q3oC9BNbi4m/knxULhdsyaVRrM75q2Xb0a+DIBl8C/W0NdBdOsi2otbYq64yay2eOJ6DoA1REw1ntgPjWfydxVCZPOuNbWkfF4/FoAR0ekS09VxWJHzaurWyZLiiAIgiAIgiAIggs0N8eSqdSLAHbajL+ymIDbNfAotH6h2NCwdF0/lGptHaurqnYipQ4D89EAEj73/oKCZf00qqalSvDfRC63F2l9N4CtI9AdBvCnnp6eHyxpaloZVZslbXt3ANcDyERjpNH1Y7q7v9ba1NQjK4ogCIIgCIIgCIJLsWQ2eyGIfjzEf/ZtAAsBrOS+m0HDCdgGwarP3F0imrTYNN+Kqm2pUpy41rbTmuhBMDdEpEsdivnUrkzmmSjZqf/Y5aUEnA3AiECXGMCFUc6CC4IgCIIgCIIgBIFUR8f2XC6/jEFeHYwINxYs6+Qod1BViiW7LCtnVFXtDuDJiHSpXhM9lbTt2ybMnTslCh1K2Pbha4A3CTgX0UhedRPzSZK8EgRBEARBEARBcJnm5pgul/+GykxelVnrn0W9k1RpVm1qbY0vi8f/BODUCHVrNYh+WWUYvwpjfaWkbe/GwBUE7BMhm7wF4IiCZf1HVhJBEARBEARBEASX48ps9iIQXVah3b+pYFlfinonqWKd27bPA3B5xHSwHMDvy8BVYXjlLuk4s6D1BSDaP2KDak5vuXzY4sbGTllGBEEQBEEQBEEQ3KXCrw72klJN+XTajnpHqZKdPOE4RxLzdQDGRKxrqwm4Bcx/zmcyLwZJsHGtrSOr4/HjNPA1AmZGcEDdE1fqlI50erksI4IgCIIgCIIgCO4yo6WlatHo0S8C2LES+0/Mv8hnMudURF8r3dknZbP1mug2BmZEtIuzAdyoDePOhfX1832RoLk5lkgmZ4HoaAUcy8CoCOq5F8APC6b5axCxLCOCIAiCIAiCIAju49Krg2Gh2F0uNy5tbFxRCZ0lcfe+l+/WAL8G8I1Id5T5ZQD3sVLNE5cte+mVmTN73Wpq8pw5E3tjsf2I6EAAnwWwVYQ12wXg2IJlvSCjSRAEQRAEQRAEwRsSjlNLzG0AaipUBccULOv2SumsJLA+6vzHEfOfAWxRAd1dBeb/kFKvgPkNIpptGIYzr65u7WD/0DYdHeOrmLeF1tuDeTqIdgXQWCFu8zBr/aViQ8NSGUGCIAiCIAiCIAjekbTtmwCcVKHdr4jC7R9GElgfI9HW1kCGcTuA7SpUBYsZ6CKgSESrWOsVpNRyzazBXENEIwGMBLA1gCSASQCGVaCeygAuLpjmz+TKoCAIgiAIgiAIgrdM6eyc0FsqFQCoSus7AZ2rgR3esaz3KqzfwsdJFIs1WLXqNwScLtoQ1kGegJPylvW0qEIQBEEQBEEQBMF7Uo5zFDPfVYFdX62U2rcrnW6ptI4rcftPUkwkVhct6yuk1KEACqIR4UNcV63UtpK8EgRBEARBEARB8A/NvGUFdpsBnFKJyStAElgbJJ9OP1QVi20L5htEGxVPgZQ6tGBZp3Wk08tFHYIgCIIgCIIgCP5hVOZhkwsrqWj7x5ErhAMkmc0eCqI/A0iINioM5huqqqq+O6+ubpkoQxAEQRAEQRAEwX9M265eA8wHML4S+kvAZXnL+lEl21wSWINg0vz5W5Z7en4D4IuijUoYHbQQWn+1kMk8IMoQBEEQBEEQBEEIFknb/gKA2xD13AbRjwumeXHFh+ji8oMnYduHE9FvwTxFtBFJNIAbqKfn7HxT0zuiDkEQBEEQBEEQhGCScpxvM/OvARgR7F4JzGcUMplrxNKSwNr0QdLVNVyvXfsDAn4AoEY0EhleJK2/k29oeElUIQiCIAiCIAiCEHySjjOLmW8mYEKEuvUuA8cVLetRsXAfksDaTBK53CTS+hcAjhZthHkk0EIA5xXS6RtBxKIQQRAEQRAEQRCE8DCls3NCb6n0GwDHRKA7TzLRKUXT7BLLfihsFxUMDSnb3o+ZfwOi7UUboaKHiK5aWyr9ZGlj4wpRhyAIgiAIgiAIQnhJ5nL7Q+vfAWgMofgrAfyoYJpXgUiLNT+KJLCGkubmWCKV+hoBlwLYShQSeB6AUt8vpNNZUYUgCIIgCIIgCEJ0YvNUKnUKAxcBmBQCiRnATapcPq+rsbEoBlw3ksByga3b2raojsW+A+azAIwVjQTN6+lxBn5UNM3nRRmCIAiCIAiCIAjRxLTt6rVEX2LmbwGYHkARywDuYOCKomW9JhbbSCgvKnCPsbY9ajjzmSD6HoAtRSO+8yQr9aNiOv2sqEIQBEEQBEEQBKFymNjevreh1MkMHAX/D5q8BeBmBfx/e3ezW1UVhnH8/+4da8EIVSliAWkLp0nbkbbGREeaJibGGCcmjBx2YBxwB4y8g850hhPxBkSqIcaRoWhi+DxtD8ixtMaIQavY7rNfB8xwIF+Wcvr/XcDOXs+7Rk/22mvmaqOx4HTujAXWBhheWNh5s66PBBwB+kxkw50qMo9eHRn52igkSZIkaeuaOH36sZW+viky30yYYuP+lbUCnCTz0z03bpyYm5xcdxp3xwJrAw22Wn1VVR1JeB/oN5H/VRLxZWR+2G40ThmHJEmSJOl2+y5e3EvEyxkxkfBiwCiwDyjv47EVcB74HjgTZflVe2joB2+8vz8WWA/BoWbz8b8iDmfmBwGTJvJA/Q4cqzNnro2MnDcOSZIkSdLdGD97tue33t5BYH92OruLothF5jM19BYRRdb1zohYq2G1gJt15mpELBPRzqpa2l6Wl+cbjb9N8sGywHrInpufnyjqepqI94BeE7ln8wEfs7b2UXt8/FfjkCRJkiSpe1hgbRKDrdaetaqaDpgG9prIHekQ8XnATPvgwRN+jilJkiRJUneywNpsMouBxcVXyHw3Mg8Duw3lX5t2jsxjZVUdvzI2ds1EJEmSJEnq+i5Am1ZmOdBsvha3jhe+Azy5hTfqOeAzIj5pHzo07+aQJEmSJGnrsMB6RAwsLW2P1dW3Et6OW1d9PtvlS+4A3wZ8UcHx5UbjnLtAkiRJkqStyQLrEfX8pUvDdVFMZeZUwBsJO7pgWYtkzhIxW/b0zP544MB1Jy1JkiRJkiywusBgq9W7XtevUtevAy8BLwC7NvlrV8B54LuI+KZaXz+5PDp62WlKkiRJkqTbWWB1qf0XLgx0ynKigLGE8YCJhNGHNPP1gGbCXGTO1WU5x7ZtZ5YGBv50UpIkSZIk6b9YYG0hTzebO7bV9VCU5XDCMLA/M/sD9gb0Z8RTkfnEXRxHXAf+AK4DvwA/B6wAP9VwpYDFTlm2rg0NtYnoOAFJkiRJknQv/gG+VsF4UNRQdwAAACV0RVh0ZGF0ZTpjcmVhdGUAMjAyMC0wMi0xMFQxMTozNDoyOSswMDowMPijF2YAAAAldEVYdGRhdGU6bW9kaWZ5ADIwMjAtMDItMTBUMTE6MzQ6MjkrMDA6MDCJ/q/aAAAAAElFTkSuQmCC;" vertex="1" parent="1">
          <mxGeometry x="1010" y="560" width="190.9" height="39.13" as="geometry" />
        </mxCell>
        <mxCell id="KI43ASTjGofKOuIiyX8u-12" style="edgeStyle=orthogonalEdgeStyle;rounded=0;orthogonalLoop=1;jettySize=auto;html=1;startArrow=classic;startFill=1;" edge="1" parent="1" source="KI43ASTjGofKOuIiyX8u-5" target="KI43ASTjGofKOuIiyX8u-4">
          <mxGeometry relative="1" as="geometry">
            <Array as="points">
              <mxPoint x="699" y="460" />
              <mxPoint x="699" y="460" />
            </Array>
          </mxGeometry>
        </mxCell>
        <mxCell id="KI43ASTjGofKOuIiyX8u-5" value="Static Website" style="sketch=0;aspect=fixed;pointerEvents=1;shadow=0;dashed=0;html=1;strokeColor=none;labelPosition=center;verticalLabelPosition=top;verticalAlign=bottom;align=center;shape=mxgraph.mscae.enterprise.website_generic;fillColor=#7D7D7D;" vertex="1" parent="1">
          <mxGeometry x="653.5399999999998" y="360" width="90.91" height="80" as="geometry" />
        </mxCell>
        <mxCell id="KI43ASTjGofKOuIiyX8u-10" value="AWS Cloud" style="points=[[0,0],[0.25,0],[0.5,0],[0.75,0],[1,0],[1,0.25],[1,0.5],[1,0.75],[1,1],[0.75,1],[0.5,1],[0.25,1],[0,1],[0,0.75],[0,0.5],[0,0.25]];outlineConnect=0;gradientColor=none;html=1;whiteSpace=wrap;fontSize=12;fontStyle=0;container=1;pointerEvents=0;collapsible=0;recursiveResize=0;shape=mxgraph.aws4.group;grIcon=mxgraph.aws4.group_aws_cloud_alt;strokeColor=#232F3E;fillColor=none;verticalAlign=top;align=left;spacingLeft=30;fontColor=#232F3E;dashed=0;" vertex="1" parent="1">
          <mxGeometry x="460" y="492" width="510" height="348" as="geometry" />
        </mxCell>
        <mxCell id="KI43ASTjGofKOuIiyX8u-4" value="Amazon Amplify" style="sketch=0;points=[[0,0,0],[0.25,0,0],[0.5,0,0],[0.75,0,0],[1,0,0],[0,1,0],[0.25,1,0],[0.5,1,0],[0.75,1,0],[1,1,0],[0,0.25,0],[0,0.5,0],[0,0.75,0],[1,0.25,0],[1,0.5,0],[1,0.75,0]];outlineConnect=0;fontColor=#232F3E;gradientColor=#F54749;gradientDirection=north;fillColor=#C7131F;strokeColor=#ffffff;dashed=0;verticalLabelPosition=bottom;verticalAlign=top;align=left;html=1;fontSize=12;fontStyle=0;aspect=fixed;shape=mxgraph.aws4.resourceIcon;resIcon=mxgraph.aws4.amplify;labelPosition=right;" vertex="1" parent="KI43ASTjGofKOuIiyX8u-10">
          <mxGeometry x="200" y="68" width="78" height="78" as="geometry" />
        </mxCell>
        <mxCell id="KI43ASTjGofKOuIiyX8u-20" style="edgeStyle=orthogonalEdgeStyle;rounded=0;orthogonalLoop=1;jettySize=auto;html=1;" edge="1" parent="KI43ASTjGofKOuIiyX8u-10" source="KI43ASTjGofKOuIiyX8u-6">
          <mxGeometry relative="1" as="geometry">
            <mxPoint x="200" y="108" as="targetPoint" />
            <Array as="points">
              <mxPoint x="60" y="108" />
              <mxPoint x="200" y="108" />
            </Array>
          </mxGeometry>
        </mxCell>
        <mxCell id="KI43ASTjGofKOuIiyX8u-6" value="CodeCommit" style="sketch=0;points=[[0,0,0],[0.25,0,0],[0.5,0,0],[0.75,0,0],[1,0,0],[0,1,0],[0.25,1,0],[0.5,1,0],[0.75,1,0],[1,1,0],[0,0.25,0],[0,0.5,0],[0,0.75,0],[1,0.25,0],[1,0.5,0],[1,0.75,0]];outlineConnect=0;fontColor=#232F3E;gradientColor=#4D72F3;gradientDirection=north;fillColor=#3334B9;strokeColor=#ffffff;dashed=0;verticalLabelPosition=bottom;verticalAlign=top;align=left;html=1;fontSize=12;fontStyle=0;aspect=fixed;shape=mxgraph.aws4.resourceIcon;resIcon=mxgraph.aws4.codecommit;labelPosition=right;" vertex="1" parent="KI43ASTjGofKOuIiyX8u-10">
          <mxGeometry x="21" y="210" width="78" height="78" as="geometry" />
        </mxCell>
        <mxCell id="KI43ASTjGofKOuIiyX8u-18" style="edgeStyle=orthogonalEdgeStyle;rounded=0;orthogonalLoop=1;jettySize=auto;html=1;entryX=1;entryY=0.75;entryDx=0;entryDy=0;entryPerimeter=0;" edge="1" parent="KI43ASTjGofKOuIiyX8u-10" source="KI43ASTjGofKOuIiyX8u-13" target="KI43ASTjGofKOuIiyX8u-4">
          <mxGeometry relative="1" as="geometry">
            <Array as="points">
              <mxPoint x="419" y="127" />
              <mxPoint x="370" y="127" />
            </Array>
          </mxGeometry>
        </mxCell>
        <mxCell id="KI43ASTjGofKOuIiyX8u-13" value="Secret" style="sketch=0;points=[[0,0,0],[0.25,0,0],[0.5,0,0],[0.75,0,0],[1,0,0],[0,1,0],[0.25,1,0],[0.5,1,0],[0.75,1,0],[1,1,0],[0,0.25,0],[0,0.5,0],[0,0.75,0],[1,0.25,0],[1,0.5,0],[1,0.75,0]];outlineConnect=0;fontColor=#232F3E;gradientColor=#F54749;gradientDirection=north;fillColor=#C7131F;strokeColor=#ffffff;dashed=0;verticalLabelPosition=bottom;verticalAlign=top;align=left;html=1;fontSize=12;fontStyle=0;aspect=fixed;shape=mxgraph.aws4.resourceIcon;resIcon=mxgraph.aws4.secrets_manager;labelPosition=right;" vertex="1" parent="KI43ASTjGofKOuIiyX8u-10">
          <mxGeometry x="380" y="218" width="78" height="78" as="geometry" />
        </mxCell>
        <mxCell id="KI43ASTjGofKOuIiyX8u-19" style="edgeStyle=orthogonalEdgeStyle;rounded=0;orthogonalLoop=1;jettySize=auto;html=1;" edge="1" parent="KI43ASTjGofKOuIiyX8u-10" source="KI43ASTjGofKOuIiyX8u-14" target="KI43ASTjGofKOuIiyX8u-4">
          <mxGeometry relative="1" as="geometry" />
        </mxCell>
        <mxCell id="KI43ASTjGofKOuIiyX8u-14" value="CloudFormation" style="sketch=0;points=[[0,0,0],[0.25,0,0],[0.5,0,0],[0.75,0,0],[1,0,0],[0,1,0],[0.25,1,0],[0.5,1,0],[0.75,1,0],[1,1,0],[0,0.25,0],[0,0.5,0],[0,0.75,0],[1,0.25,0],[1,0.5,0],[1,0.75,0]];points=[[0,0,0],[0.25,0,0],[0.5,0,0],[0.75,0,0],[1,0,0],[0,1,0],[0.25,1,0],[0.5,1,0],[0.75,1,0],[1,1,0],[0,0.25,0],[0,0.5,0],[0,0.75,0],[1,0.25,0],[1,0.5,0],[1,0.75,0]];outlineConnect=0;fontColor=#232F3E;gradientColor=#F34482;gradientDirection=north;fillColor=#BC1356;strokeColor=#ffffff;dashed=0;verticalLabelPosition=bottom;verticalAlign=top;align=left;html=1;fontSize=12;fontStyle=0;aspect=fixed;shape=mxgraph.aws4.resourceIcon;resIcon=mxgraph.aws4.cloudformation;labelPosition=right;" vertex="1" parent="KI43ASTjGofKOuIiyX8u-10">
          <mxGeometry x="200.00000000000006" y="210" width="78" height="78" as="geometry" />
        </mxCell>
        <mxCell id="KI43ASTjGofKOuIiyX8u-16" style="edgeStyle=orthogonalEdgeStyle;rounded=0;orthogonalLoop=1;jettySize=auto;html=1;" edge="1" parent="1" source="KI43ASTjGofKOuIiyX8u-15" target="KI43ASTjGofKOuIiyX8u-2">
          <mxGeometry relative="1" as="geometry">
            <Array as="points" />
          </mxGeometry>
        </mxCell>
        <mxCell id="KI43ASTjGofKOuIiyX8u-36" style="edgeStyle=orthogonalEdgeStyle;rounded=0;orthogonalLoop=1;jettySize=auto;html=1;entryX=0;entryY=0.5;entryDx=0;entryDy=0;exitX=0.5;exitY=0;exitDx=0;exitDy=0;exitPerimeter=0;" edge="1" parent="1" source="KI43ASTjGofKOuIiyX8u-15" target="KI43ASTjGofKOuIiyX8u-30">
          <mxGeometry relative="1" as="geometry">
            <Array as="points">
              <mxPoint x="348" y="930" />
            </Array>
          </mxGeometry>
        </mxCell>
        <mxCell id="KI43ASTjGofKOuIiyX8u-15" value="Developer" style="sketch=0;aspect=fixed;pointerEvents=1;shadow=0;dashed=0;html=1;strokeColor=none;labelPosition=center;verticalLabelPosition=bottom;verticalAlign=top;align=center;fillColor=#4D4D4D;shape=mxgraph.azure.laptop" vertex="1" parent="1">
          <mxGeometry x="297.5" y="1030" width="100" height="60" as="geometry" />
        </mxCell>
        <mxCell id="KI43ASTjGofKOuIiyX8u-31" value="" style="group" vertex="1" connectable="0" parent="1">
          <mxGeometry x="562.49" y="875" width="273" height="110" as="geometry" />
        </mxCell>
        <mxCell id="KI43ASTjGofKOuIiyX8u-30" value="" style="rounded=0;whiteSpace=wrap;html=1;fillColor=none;" vertex="1" parent="KI43ASTjGofKOuIiyX8u-31">
          <mxGeometry width="273" height="110" as="geometry" />
        </mxCell>
        <mxCell id="KI43ASTjGofKOuIiyX8u-24" value="AWS CDK" style="sketch=0;points=[[0,0,0],[0.25,0,0],[0.5,0,0],[0.75,0,0],[1,0,0],[0,1,0],[0.25,1,0],[0.5,1,0],[0.75,1,0],[1,1,0],[0,0.25,0],[0,0.5,0],[0,0.75,0],[1,0.25,0],[1,0.5,0],[1,0.75,0]];outlineConnect=0;fontColor=#333333;gradientColor=#4D72F3;gradientDirection=north;fillColor=#3334B9;strokeColor=#ffffff;dashed=0;verticalLabelPosition=bottom;verticalAlign=top;align=center;html=1;fontSize=12;fontStyle=0;aspect=fixed;shape=mxgraph.aws4.resourceIcon;resIcon=mxgraph.aws4.cloud_development_kit;" vertex="1" parent="KI43ASTjGofKOuIiyX8u-31">
          <mxGeometry x="193" y="24.5" width="48" height="48" as="geometry" />
        </mxCell>
        <mxCell id="KI43ASTjGofKOuIiyX8u-28" value="&lt;span style=&quot;white-space: pre;&quot;&gt;&#x9;&lt;/span&gt;$ cdk init&lt;br&gt;&lt;span style=&quot;white-space: pre;&quot;&gt;&#x9;&lt;/span&gt;$ npm run build&lt;br&gt;&lt;span style=&quot;white-space: pre;&quot;&gt;&#x9;&lt;/span&gt;$ cdk deploy&lt;span style=&quot;white-space: pre;&quot;&gt;&#x9;&lt;/span&gt;" style="rounded=0;whiteSpace=wrap;html=1;fillColor=none;dashed=1;dashPattern=12 12;align=left;" vertex="1" parent="KI43ASTjGofKOuIiyX8u-31">
          <mxGeometry x="33" y="24.5" width="130" height="61" as="geometry" />
        </mxCell>
        <mxCell id="KI43ASTjGofKOuIiyX8u-32" style="edgeStyle=orthogonalEdgeStyle;rounded=0;orthogonalLoop=1;jettySize=auto;html=1;entryX=0.5;entryY=1;entryDx=0;entryDy=0;entryPerimeter=0;" edge="1" parent="1" source="KI43ASTjGofKOuIiyX8u-30" target="KI43ASTjGofKOuIiyX8u-14">
          <mxGeometry relative="1" as="geometry" />
        </mxCell>
        <mxCell id="KI43ASTjGofKOuIiyX8u-33" style="edgeStyle=orthogonalEdgeStyle;rounded=0;orthogonalLoop=1;jettySize=auto;html=1;" edge="1" parent="1" source="KI43ASTjGofKOuIiyX8u-15" target="KI43ASTjGofKOuIiyX8u-6">
          <mxGeometry relative="1" as="geometry">
            <mxPoint x="348" y="1030" as="sourcePoint" />
            <mxPoint x="520" y="780" as="targetPoint" />
            <Array as="points">
              <mxPoint x="348" y="930" />
              <mxPoint x="520" y="930" />
            </Array>
          </mxGeometry>
        </mxCell>
      </root>
    </mxGraphModel>
  </diagram>
</mxfile>
